<?xml version="1.0" standalone="no"?>
<!DOCTYPE svg PUBLIC "-//W3C//DTD SVG 20010904//EN"
 "http://www.w3.org/TR/2001/REC-SVG-20010904/DTD/svg10.dtd">
<svg version="1.0" xmlns="http://www.w3.org/2000/svg"
 width="512.000000pt" height="512.000000pt" viewBox="0 0 512.000000 512.000000"
 preserveAspectRatio="xMidYMid meet">
<metadata>
Created by potrace 1.14, written by Peter Selinger 2001-2017
</metadata>
<g transform="translate(0.000000,512.000000) scale(0.100000,-0.100000)"
fill="#000000" stroke="none">
<path d="M2340 4949 c-160 -18 -375 -75 -465 -123 -40 -21 -48 -21 -827 -26
-775 -5 -787 -5 -814 -26 -15 -11 -37 -33 -48 -48 -21 -27 -21 -28 -21 -1526
0 -1498 0 -1499 21 -1526 49 -67 56 -69 275 -72 l199 -3 0 -554 0 -554 -30
-16 c-16 -8 -42 -15 -58 -15 -16 0 -37 -9 -47 -20 -49 -54 -140 -45 -205 20
l-40 40 -15 -37 c-24 -57 -34 -112 -35 -180 0 -51 4 -67 24 -90 l24 -28 251
-3 251 -3 0 881 c0 852 1 882 19 919 27 51 82 98 128 108 50 10 3216 10 3266
0 47 -10 105 -60 128 -112 18 -38 19 -90 19 -917 l0 -878 60 0 60 0 0 719 0
720 199 3 c219 3 226 5 275 72 21 27 21 28 21 1526 0 1498 0 1499 -21 1526
-11 15 -33 37 -48 48 -27 21 -39 21 -814 26 -779 5 -787 5 -827 26 -52 28
-209 78 -305 97 -172 36 -422 46 -600 26z m-973 -549 l-52 -79 -417 -1 -418 0
0 80 0 80 469 0 470 0 -52 -80z m2713 0 l0 -80 -137 0 -138 1 -52 79 -52 80
190 0 189 0 0 -80z m560 0 l0 -80 -160 0 -160 0 0 80 0 80 160 0 160 0 0 -80z
m-3520 -480 l0 -80 -160 0 -160 0 0 80 0 80 160 0 160 0 0 -80z m3360 0 l0
-80 -240 0 -240 0 0 80 0 80 240 0 240 0 0 -80z m-2670 -230 c126 -24 360 -50
548 -61 287 -17 587 2 931 58 119 19 167 12 234 -34 51 -35 78 -85 121 -222
71 -224 129 -528 149 -771 l12 -145 80 137 c43 76 83 134 87 130 5 -5 13 -37
20 -72 21 -120 -28 -268 -114 -346 -29 -26 -45 -53 -62 -102 l-22 -67 -1234 0
-1235 0 -22 67 c-16 50 -31 76 -61 102 -86 78 -136 230 -114 348 6 34 15 65
20 70 4 4 43 -54 87 -130 l80 -137 11 145 c19 238 79 547 151 774 53 171 92
222 187 252 51 16 79 17 146 4z m-724 -207 c-3 -21 -6 -57 -6 -80 l0 -43 -300
0 -300 0 0 80 0 80 306 0 307 0 -7 -37z m3554 -43 l0 -80 -240 0 -240 0 0 80
0 80 240 0 240 0 0 -80z m-3840 -480 l0 -80 -160 0 -160 0 0 80 0 80 160 0
160 0 0 -80z m3600 0 l0 -80 -195 0 -196 0 5 33 c3 17 8 53 11 80 l6 47 185 0
184 0 0 -80z m-3340 -442 c7 -24 21 -60 31 -80 l19 -38 -315 0 -315 0 0 80 0
80 283 0 284 0 13 -42z m3580 -38 l0 -80 -315 0 -315 0 19 38 c10 20 24 56 30
80 l12 42 284 0 285 0 0 -80z"/>
<path d="M1790 3221 c-95 -29 -200 -116 -200 -166 0 -14 9 -34 21 -46 24 -24
42 -22 134 12 93 34 214 33 327 -5 73 -24 92 -27 113 -18 83 38 -3 161 -151
213 -56 20 -193 25 -244 10z"/>
<path d="M3105 3217 c-71 -24 -120 -54 -164 -102 -35 -38 -42 -51 -36 -73 7
-31 30 -52 57 -52 10 0 53 12 95 26 60 21 97 27 163 27 66 0 103 -6 163 -27
92 -31 109 -32 130 -8 30 33 21 74 -25 119 -67 66 -145 96 -253 100 -56 2
-105 -2 -130 -10z"/>
<path d="M1813 2949 c-71 -35 -123 -138 -107 -213 18 -85 73 -145 152 -166 95
-25 206 43 232 142 46 170 -122 314 -277 237z"/>
<path d="M3125 2947 c-80 -45 -120 -144 -95 -235 26 -99 137 -167 232 -142 94
25 152 102 152 200 -1 61 -18 101 -61 144 -59 60 -156 74 -228 33z"/>
<path d="M2272 1344 c-29 -14 -63 -40 -76 -58 -52 -69 -58 -92 -72 -290 -25
-341 -49 -478 -123 -705 -23 -69 -41 -126 -41 -128 0 -2 270 -3 600 -3 330 0
600 1 600 3 0 1 -18 58 -41 127 -74 228 -96 358 -123 710 -8 102 -19 196 -24
210 -22 54 -71 108 -123 134 -53 26 -54 26 -289 26 -234 0 -236 0 -288 -26z"/>
</g>
</svg>
