<?xml version="1.0" standalone="no"?>
<!DOCTYPE svg PUBLIC "-//W3C//DTD SVG 20010904//EN"
 "http://www.w3.org/TR/2001/REC-SVG-20010904/DTD/svg10.dtd">
<svg version="1.0" xmlns="http://www.w3.org/2000/svg"
 width="1601.000000pt" height="1601.000000pt" viewBox="0 0 1601.000000 1601.000000"
 preserveAspectRatio="xMidYMid meet">
<metadata>
Created by potrace 1.14, written by Peter Selinger 2001-2017
</metadata>
<g transform="translate(0.000000,1601.000000) scale(0.100000,-0.100000)"
fill="#000000" stroke="none">
<path d="M8026 12372 c-3 -5 1 -9 9 -9 8 0 12 4 9 9 -3 4 -7 8 -9 8 -2 0 -6
-4 -9 -8z"/>
<path d="M10353 12205 c0 -8 4 -12 9 -9 5 3 6 10 3 15 -9 13 -12 11 -12 -6z"/>
<path d="M9835 11971 c-3 -5 -2 -12 3 -15 5 -3 9 1 9 9 0 17 -3 19 -12 6z"/>
<path d="M8799 11908 c-5 -18 -6 -38 -1 -34 7 8 12 36 6 36 -2 0 -4 -1 -5 -2z"/>
<path d="M7630 11768 c0 -4 4 -8 9 -8 6 0 12 4 15 8 3 5 -1 9 -9 9 -8 0 -15
-4 -15 -9z"/>
<path d="M8625 11729 c-3 -4 2 -6 10 -5 21 3 28 13 10 13 -9 0 -18 -4 -20 -8z"/>
<path d="M8700 11736 c0 -2 8 -10 18 -17 15 -13 16 -12 3 4 -13 16 -21 21 -21
13z"/>
<path d="M8990 11730 c0 -5 5 -10 11 -10 5 0 7 5 4 10 -3 6 -8 10 -11 10 -2 0
-4 -4 -4 -10z"/>
<path d="M9315 11731 c-3 -5 -2 -12 3 -15 5 -3 9 1 9 9 0 17 -3 19 -12 6z"/>
<path d="M11315 11650 c-3 -5 -1 -10 4 -10 6 0 11 5 11 10 0 6 -2 10 -4 10 -3
0 -8 -4 -11 -10z"/>
<path d="M10553 11625 c0 -8 4 -12 9 -9 5 3 6 10 3 15 -9 13 -12 11 -12 -6z"/>
<path d="M6956 11603 c-6 -14 -5 -15 5 -6 7 7 10 15 7 18 -3 3 -9 -2 -12 -12z"/>
<path d="M8875 11611 c-3 -5 -2 -12 3 -15 5 -3 9 1 9 9 0 17 -3 19 -12 6z"/>
<path d="M7076 11577 c3 -10 9 -15 12 -12 3 3 0 11 -7 18 -10 9 -11 8 -5 -6z"/>
<path d="M7747 11569 c7 -7 15 -10 18 -7 3 3 -2 9 -12 12 -14 6 -15 5 -6 -5z"/>
<path d="M9873 11565 c0 -8 4 -12 9 -9 5 3 6 10 3 15 -9 13 -12 11 -12 -6z"/>
<path d="M8086 11552 c-3 -5 1 -9 9 -9 8 0 12 4 9 9 -3 4 -7 8 -9 8 -2 0 -6
-4 -9 -8z"/>
<path d="M8095 11510 c-3 -5 -1 -10 4 -10 6 0 11 5 11 10 0 6 -2 10 -4 10 -3
0 -8 -4 -11 -10z"/>
<path d="M9996 11497 c3 -10 9 -15 12 -12 3 3 0 11 -7 18 -10 9 -11 8 -5 -6z"/>
<path d="M7827 11449 c7 -7 15 -10 18 -7 3 3 -2 9 -12 12 -14 6 -15 5 -6 -5z"/>
<path d="M9476 11448 c3 -5 10 -6 15 -3 13 9 11 12 -6 12 -8 0 -12 -4 -9 -9z"/>
<path d="M6753 11405 c0 -8 4 -12 9 -9 5 3 6 10 3 15 -9 13 -12 11 -12 -6z"/>
<path d="M7955 11410 c-3 -5 -1 -10 4 -10 6 0 11 5 11 10 0 6 -2 10 -4 10 -3
0 -8 -4 -11 -10z"/>
<path d="M8054 11406 c1 -8 5 -18 8 -22 4 -3 5 1 4 10 -1 8 -5 18 -8 22 -4 3
-5 -1 -4 -10z"/>
<path d="M9076 11408 c3 -5 10 -6 15 -3 13 9 11 12 -6 12 -8 0 -12 -4 -9 -9z"/>
<path d="M15267 11393 c-4 -3 -64 -8 -134 -10 -111 -3 -198 -9 -198 -12 0 -2
-207 -11 -239 -11 -16 0 -43 -4 -60 -9 -17 -5 -74 -12 -126 -16 -52 -3 -120
-8 -150 -10 -62 -4 -95 -10 -111 -21 -7 -4 -25 -7 -41 -6 -15 0 -26 -3 -23 -8
3 -5 -7 -3 -21 5 -15 8 -31 12 -35 9 -12 -7 -149 -14 -314 -17 -82 -1 -153 -6
-157 -11 -8 -11 -13 -12 -163 -31 -22 -3 -58 -8 -80 -12 -22 -3 -53 -7 -70 -9
-16 -1 -34 -3 -38 -3 -5 -1 -5 -5 -2 -11 3 -5 2 -10 -4 -10 -5 0 -12 6 -14 13
-4 8 -8 9 -14 1 -4 -6 -22 -10 -40 -9 -18 1 -30 -2 -28 -6 3 -4 -4 -9 -16 -12
-17 -5 -18 -3 -7 10 12 15 11 15 -9 3 -18 -12 -20 -17 -10 -30 11 -13 10 -13
-7 0 -22 17 -44 21 -51 10 -3 -5 -13 -6 -22 -3 -11 4 -14 3 -9 -5 4 -7 1 -12
-8 -12 -9 0 -16 6 -16 13 -1 8 -5 7 -13 -4 -7 -9 -18 -14 -26 -11 -8 3 -11 0
-7 -7 4 -6 3 -11 -3 -11 -5 0 -11 5 -13 11 -2 5 -11 7 -21 4 -9 -4 -15 -11
-12 -15 3 -5 -5 -6 -17 -2 -12 3 -19 1 -15 -5 3 -5 0 -10 -8 -10 -8 0 -12 5
-8 10 3 5 -4 4 -14 -2 -11 -6 -23 -7 -27 -4 -3 3 -6 2 -6 -4 0 -6 -12 -8 -26
-5 -19 3 -25 1 -20 -6 4 -7 2 -10 -7 -6 -7 2 -27 -1 -43 -7 -16 -7 -32 -12
-36 -11 -4 1 -20 -3 -35 -10 -15 -6 -34 -10 -41 -9 -7 1 -15 -5 -19 -14 -4
-12 -8 -13 -13 -5 -5 8 -13 9 -21 4 -14 -9 -19 -10 -40 -13 -5 0 -8 -5 -5 -9
2 -4 -7 -7 -22 -7 -15 1 -38 -6 -52 -15 -14 -9 -35 -15 -47 -14 -13 1 -23 -3
-23 -8 0 -6 -7 -8 -15 -5 -8 4 -17 2 -20 -4 -4 -5 -11 -7 -16 -4 -5 4 -9 1 -9
-5 0 -6 -4 -9 -9 -6 -15 9 -42 -5 -34 -18 4 -6 0 -6 -9 2 -11 9 -18 10 -23 2
-3 -6 -10 -8 -15 -5 -4 3 -11 -3 -14 -12 -6 -14 -9 -15 -16 -4 -6 11 -11 10
-21 -7 -12 -19 -14 -19 -26 -4 -12 15 -13 15 -7 1 3 -10 0 -20 -7 -25 -8 -4
-10 -3 -5 4 4 7 2 12 -3 12 -6 0 -11 -4 -11 -9 0 -6 -9 -8 -20 -6 -11 2 -20
-1 -20 -6 0 -6 -4 -7 -10 -4 -5 3 -10 1 -10 -5 0 -6 -4 -8 -10 -5 -5 3 -10 2
-10 -4 0 -5 -11 -8 -25 -6 -14 1 -25 -2 -25 -7 0 -6 -7 -7 -16 -4 -12 5 -15 2
-10 -11 4 -10 4 -14 0 -11 -4 4 -15 3 -25 -2 -12 -7 -19 -6 -22 3 -3 6 -6 4
-6 -7 -1 -15 -4 -16 -15 -7 -11 10 -17 7 -30 -11 -9 -12 -16 -19 -16 -14 0 5
-8 2 -17 -5 -11 -9 -14 -10 -9 -2 5 9 2 11 -8 7 -9 -3 -16 -10 -16 -14 0 -4
-7 -11 -16 -14 -15 -6 -15 -4 -3 11 7 10 0 7 -15 -7 -16 -14 -26 -19 -22 -12
4 6 2 12 -3 12 -6 0 -11 -5 -11 -11 0 -5 -5 -7 -12 -3 -8 5 -9 1 -5 -12 7 -18
7 -18 -8 0 -8 11 -15 14 -15 7 0 -7 -4 -9 -10 -6 -5 3 -10 2 -10 -4 0 -6 -7
-8 -15 -5 -8 4 -15 1 -15 -6 0 -6 -4 -8 -10 -5 -5 3 -10 1 -10 -5 0 -6 -4 -9
-8 -6 -12 7 -92 -15 -92 -25 0 -5 -7 -9 -15 -9 -8 0 -15 -5 -15 -11 0 -5 -4
-8 -9 -4 -5 3 -45 -9 -87 -26 -43 -17 -94 -32 -114 -34 -19 -2 -46 -6 -60 -9
-14 -3 -35 -8 -47 -11 -13 -3 -33 -8 -45 -11 -13 -3 -29 -6 -35 -6 -7 -1 -13
-5 -13 -10 0 -5 -5 -6 -10 -3 -6 4 -17 1 -25 -5 -8 -7 -15 -10 -15 -6 0 3 -15
0 -34 -8 -26 -11 -37 -11 -46 -3 -10 9 -11 9 -6 0 6 -11 -16 -23 -53 -29 -8
-2 -17 -8 -21 -14 -4 -7 -9 -11 -11 -10 -2 1 -17 -3 -32 -9 -16 -6 -35 -11
-43 -11 -8 0 -14 -3 -14 -7 0 -8 -27 -12 -92 -16 -16 -1 -28 -5 -28 -9 0 -5
-3 -7 -7 -7 -5 1 -10 0 -13 -1 -36 -14 -123 -29 -132 -24 -7 4 -8 2 -4 -4 5
-8 -2 -12 -18 -12 -14 0 -26 -6 -26 -12 0 -9 -3 -10 -8 -2 -4 6 -14 10 -22 8
-8 -1 -26 -5 -39 -8 -16 -4 -33 1 -45 12 -16 13 -18 13 -8 1 15 -20 4 -33 -15
-17 -7 6 -16 8 -20 5 -3 -4 -13 -1 -21 6 -13 9 -14 9 -8 0 5 -9 0 -13 -16 -14
-13 0 -30 -2 -38 -4 -139 -28 -220 -37 -220 -22 0 4 -5 5 -11 2 -15 -10 -69
-12 -75 -4 -2 4 -13 6 -24 4 -11 -2 -20 1 -20 6 0 6 -5 7 -11 3 -13 -8 -123
-7 -219 2 -36 3 -71 6 -77 6 -7 1 -13 5 -13 10 0 5 -8 5 -17 0 -10 -5 -24 -7
-31 -5 -10 4 -10 8 0 21 12 15 11 16 -5 3 -20 -16 -67 -22 -67 -9 0 4 -18 8
-40 8 -38 0 -46 7 -40 35 1 6 -2 7 -6 3 -4 -4 -14 -2 -23 4 -10 8 -9 4 3 -10
13 -15 15 -22 6 -22 -7 0 -19 8 -27 18 -7 9 -13 13 -12 7 3 -24 -2 -27 -17 -9
-8 10 -13 13 -9 6 5 -9 -1 -11 -22 -8 -15 3 -29 9 -30 13 -2 5 -21 7 -43 7
-24 -1 -40 3 -40 10 0 6 -5 4 -10 -4 -6 -10 -10 -11 -10 -3 0 8 -11 11 -30 9
-19 -2 -30 1 -30 9 0 17 27 27 34 12 3 -9 5 -9 5 0 2 22 -18 24 -39 3 -12 -12
-20 -15 -20 -7 0 8 -4 7 -10 -3 -6 -10 -10 -11 -10 -2 0 6 -6 12 -13 12 -21 0
-77 30 -77 41 0 6 4 8 9 4 5 -3 12 -1 15 4 4 5 -2 8 -11 7 -9 -2 -19 -8 -21
-15 -3 -9 -7 -9 -18 0 -8 6 -14 8 -14 4 0 -4 -6 -2 -14 4 -10 9 -16 9 -21 1
-5 -8 -11 -8 -21 1 -7 6 -12 15 -9 19 8 13 -23 32 -42 27 -14 -4 -13 -5 5 -6
15 -1 21 -5 16 -13 -5 -7 -3 -8 6 -3 9 5 11 4 6 -3 -9 -15 -44 2 -64 30 -7 10
-19 18 -25 18 -7 0 -4 -5 6 -11 9 -5 17 -14 17 -19 0 -9 -27 3 -71 33 -14 9
-41 19 -60 21 -23 2 -34 9 -33 19 1 9 -4 13 -12 10 -8 -3 -11 -9 -8 -14 8 -14
-3 -11 -20 6 -8 8 -26 16 -40 17 -16 2 -22 6 -16 13 6 7 2 11 -9 11 -13 0 -17
-5 -13 -16 4 -11 -1 -10 -18 5 -13 11 -20 14 -16 7 7 -11 4 -12 -13 -3 -24 13
-26 21 -8 41 6 8 3 7 -8 -2 -20 -16 -24 -16 -73 -1 -29 9 -52 20 -52 25 0 4
-6 5 -14 2 -8 -3 -17 0 -22 7 -5 8 -3 10 6 4 9 -5 11 -4 6 4 -4 6 -12 9 -17 5
-13 -8 -70 16 -64 27 3 4 -4 6 -15 4 -11 -2 -20 0 -20 6 0 5 -3 8 -7 8 -19 -4
-72 24 -66 34 4 6 1 7 -6 3 -13 -9 -54 4 -113 35 -21 11 -40 20 -43 20 -16 0
-104 43 -100 49 2 4 -7 5 -20 2 -16 -3 -25 0 -25 8 0 7 -7 10 -15 6 -8 -3 -15
-1 -15 4 0 6 -16 10 -35 10 -19 0 -35 4 -35 8 0 8 -7 10 -50 14 -11 1 -20 6
-20 10 0 4 -7 8 -15 8 -8 0 -15 5 -15 10 0 6 -7 10 -15 10 -8 0 -15 4 -15 9 0
4 -11 7 -25 6 -14 -2 -27 1 -30 5 -3 5 -13 6 -22 3 -10 -4 -14 -2 -10 4 4 6
-1 10 -11 9 -10 0 -16 5 -14 14 2 12 0 12 -11 -1 -11 -15 -16 -15 -39 -3 -15
8 -35 15 -45 17 -10 1 -22 5 -28 8 -9 5 -51 9 -127 13 -10 0 -18 3 -18 6 0 3
-12 6 -26 7 -15 0 -30 6 -34 13 -6 9 -9 9 -13 -1 -5 -12 -7 -12 -15 0 -9 13
-13 13 -29 1 -10 -8 -15 -10 -11 -6 13 15 -34 34 -56 23 -12 -6 -16 -6 -12 1
5 8 -42 14 -107 13 -11 0 -15 5 -10 12 5 9 3 9 -8 0 -12 -10 -18 -10 -29 0
-10 10 -11 9 -5 -2 6 -11 4 -13 -8 -8 -10 3 -17 2 -17 -3 0 -14 -44 -7 -58 10
-8 8 -11 9 -7 3 4 -9 -4 -13 -27 -14 -18 -1 -37 -1 -42 0 -4 1 -29 2 -55 3
-25 0 -50 3 -56 6 -17 11 -35 11 -29 1 3 -6 -6 -7 -23 -4 -57 11 -162 21 -157
14 2 -4 -20 -10 -49 -14 -28 -4 -61 -9 -72 -11 -49 -10 -96 -15 -175 -18 -47
-2 -108 -8 -137 -14 -28 -6 -61 -9 -72 -7 -12 2 -19 0 -16 -6 4 -5 -4 -9 -17
-10 -51 -2 -143 -14 -143 -19 0 0 -18 -3 -40 -5 -22 -3 -66 -8 -97 -13 -37 -6
-61 -5 -68 2 -6 6 -10 6 -10 0 0 -5 -19 -9 -42 -8 -24 1 -50 -2 -59 -7 -8 -4
-21 -4 -29 1 -8 5 -19 6 -25 2 -5 -4 -21 -8 -35 -9 -24 -3 -123 -19 -165 -27
-11 -2 -42 -7 -70 -11 -27 -5 -52 -9 -55 -10 -3 -1 -18 -5 -35 -9 -16 -4 -39
-11 -50 -16 -11 -5 -49 -18 -85 -29 -85 -26 -138 -45 -147 -55 -7 -7 -70 -38
-83 -40 -3 -1 -11 -5 -17 -9 -7 -5 -13 -5 -13 0 0 4 -4 3 -8 -3 -4 -6 -40 -23
-79 -39 -40 -15 -73 -32 -73 -37 0 -5 -4 -7 -9 -3 -5 3 -16 -2 -24 -10 -9 -8
-18 -15 -22 -15 -8 0 -115 -68 -130 -83 -7 -7 -27 -23 -45 -37 -104 -79 -151
-116 -178 -141 -9 -8 -37 -31 -62 -49 -25 -19 -54 -43 -64 -52 -10 -10 -24
-14 -30 -11 -6 3 -8 3 -4 -2 6 -6 -14 -35 -24 -35 -9 0 -178 -168 -178 -177 0
-5 -10 -15 -23 -22 -12 -6 -31 -25 -42 -41 -10 -16 -23 -26 -27 -24 -4 3 -8 0
-8 -7 0 -6 -10 -20 -22 -30 -11 -11 -18 -19 -15 -19 4 0 -6 -13 -21 -28 -41
-43 -72 -82 -67 -82 3 0 -35 -40 -85 -90 -49 -49 -90 -94 -90 -99 0 -6 -9 -15
-19 -21 -11 -5 -23 -19 -26 -30 -4 -11 -11 -18 -16 -15 -5 4 -9 1 -9 -5 0 -7
-21 -33 -48 -60 -64 -65 -112 -118 -112 -125 0 -3 -10 -16 -23 -28 -12 -12
-29 -34 -36 -49 -8 -16 -18 -28 -23 -28 -4 0 -8 -6 -8 -14 0 -8 -16 -33 -35
-56 -19 -23 -35 -45 -35 -49 0 -4 -8 -16 -18 -27 -10 -10 -28 -36 -41 -56 -12
-21 -27 -38 -32 -38 -6 0 -8 -4 -5 -9 3 -4 -3 -16 -14 -26 -11 -10 -20 -22
-20 -28 0 -5 -9 -22 -21 -38 -11 -16 -17 -29 -12 -29 4 0 3 -4 -3 -8 -5 -4
-23 -25 -39 -47 -16 -22 -34 -45 -39 -50 -12 -11 -22 -27 -63 -97 -16 -27 -33
-48 -39 -48 -7 0 -14 -7 -18 -15 -3 -8 -17 -20 -31 -27 -13 -6 -27 -20 -31
-30 -3 -11 -8 -17 -12 -14 -7 7 -52 -33 -52 -46 0 -9 -15 -27 -88 -103 -18
-19 -30 -35 -27 -35 3 0 -10 -16 -30 -35 -19 -20 -35 -40 -35 -45 0 -6 -4 -10
-8 -10 -5 0 -15 -12 -23 -27 -8 -16 -19 -32 -26 -38 -7 -5 -13 -17 -15 -25 -2
-8 -13 -25 -26 -37 -13 -13 -20 -23 -17 -23 3 0 -3 -9 -13 -20 -10 -11 -25
-38 -32 -60 -7 -22 -17 -40 -22 -40 -4 0 -16 -16 -25 -35 -9 -19 -20 -35 -25
-35 -4 0 -8 -6 -8 -13 0 -7 -8 -22 -18 -33 -26 -28 -57 -78 -54 -86 1 -5 -2
-7 -7 -5 -5 1 -29 -21 -54 -50 -25 -29 -47 -49 -51 -46 -3 4 -6 1 -6 -6 0 -6
-5 -17 -10 -24 -6 -7 -19 -23 -30 -37 -47 -57 -77 -94 -112 -133 -21 -23 -38
-46 -38 -50 0 -9 -17 -31 -42 -55 -13 -12 -15 -19 -6 -29 8 -10 7 -12 -4 -8
-10 4 -33 -15 -69 -57 -30 -35 -56 -65 -59 -68 -20 -19 -70 -90 -63 -90 4 0 1
-5 -7 -10 -8 -5 -15 -13 -15 -17 0 -5 -6 -15 -12 -23 -91 -107 -145 -188 -137
-201 4 -7 3 -9 -3 -6 -10 6 -31 -15 -93 -93 -14 -17 -37 -46 -52 -63 -15 -18
-33 -43 -40 -57 -7 -14 -19 -31 -26 -38 -6 -7 -12 -18 -12 -23 0 -6 -7 -17
-15 -26 -8 -8 -13 -19 -10 -24 4 -5 -1 -9 -9 -9 -9 0 -16 -4 -16 -9 0 -5 -32
-43 -71 -85 -80 -86 -150 -173 -128 -162 8 4 4 -1 -7 -11 -12 -10 -24 -31 -28
-46 -4 -15 -11 -25 -16 -22 -5 3 -11 1 -15 -5 -3 -5 0 -10 7 -11 7 0 5 -4 -5
-8 -10 -4 -18 -11 -17 -15 1 -5 -3 -12 -9 -15 -19 -12 -121 -145 -121 -158 0
-7 -4 -13 -9 -13 -10 0 -83 -102 -138 -194 -23 -39 -46 -75 -50 -81 -48 -60
-74 -95 -71 -95 3 0 -15 -21 -39 -46 -23 -26 -41 -50 -38 -54 3 -4 -2 -11 -11
-14 -9 -4 -14 -13 -10 -22 3 -8 2 -13 -3 -10 -11 7 -23 -22 -15 -35 3 -5 1 -9
-5 -9 -5 0 -12 6 -14 13 -3 6 -6 -786 -6 -1760 l-1 -1773 4665 0 c4139 0 4665
2 4666 15 1 8 2 21 2 28 2 28 -15 87 -23 82 -6 -3 -7 1 -4 9 7 19 -7 21 -26 4
-8 -7 -6 -3 4 9 18 22 18 22 -10 49 -16 15 -24 24 -18 21 16 -9 12 106 -4 125
-6 8 -9 18 -5 21 3 4 0 7 -7 7 -7 0 -11 3 -7 6 3 3 -5 24 -19 45 -13 21 -24
43 -24 49 0 5 -4 10 -9 10 -6 0 -8 9 -6 20 2 11 -2 26 -9 33 -7 7 -16 26 -19
42 -6 31 -14 66 -17 75 -1 3 -2 9 -1 13 1 4 -6 10 -14 13 -8 3 -13 10 -10 14
6 9 -13 57 -59 150 -37 75 -39 96 -11 92 15 -2 17 -1 6 6 -7 6 -14 22 -13 36
0 24 -2 25 -13 9 -12 -16 -13 -14 -8 10 3 15 9 27 14 27 5 0 9 5 9 12 0 9 -3
9 -12 0 -16 -16 -31 -15 -22 1 6 8 3 8 -9 -1 -15 -12 -16 -11 -12 17 2 17 0
33 -5 36 -5 3 -7 -3 -5 -15 2 -11 1 -21 -3 -24 -4 -2 -8 11 -9 30 -1 24 2 32
10 27 7 -4 7 0 -2 10 -7 9 -18 14 -25 10 -6 -4 -5 0 2 9 11 14 10 17 -8 23
-17 5 -19 10 -9 21 8 9 8 14 1 14 -6 0 -16 -8 -21 -17 -14 -24 -14 -7 0 19 10
18 9 20 -7 14 -15 -6 -16 -4 -7 5 16 16 4 41 -17 34 -10 -3 -23 2 -31 12 -11
15 -11 16 1 6 19 -17 30 -16 30 3 0 8 -4 12 -10 9 -6 -4 -10 7 -10 24 0 17 -4
31 -8 31 -4 0 -8 10 -9 22 -1 11 -8 25 -15 29 -7 5 -10 9 -5 9 4 0 1 13 -7 29
-9 16 -12 31 -9 35 4 3 0 6 -7 6 -7 0 -11 3 -7 6 3 4 0 19 -9 35 -8 16 -15 32
-15 36 0 5 -7 15 -15 24 -8 9 -11 19 -7 22 3 4 1 7 -5 7 -7 0 -11 3 -10 8 3
12 -33 82 -43 82 -5 0 -9 6 -9 14 0 8 -5 16 -10 18 -6 2 -12 15 -14 29 -1 13
-6 30 -10 37 -4 7 -4 12 0 12 4 0 -14 20 -39 44 -26 24 -47 49 -47 56 0 6 -4
8 -10 5 -5 -3 -10 -1 -10 5 0 6 -4 8 -10 5 -5 -3 -10 3 -10 15 0 28 -23 81
-47 105 -11 11 -24 28 -29 38 -20 35 -110 120 -141 134 -18 7 -33 18 -33 23 0
6 -5 10 -11 10 -14 0 -39 26 -39 40 0 6 -5 8 -12 4 -8 -5 -9 -2 -5 9 3 9 3 16
-1 15 -15 -3 -42 15 -42 29 0 8 -4 12 -9 9 -5 -3 -11 1 -15 9 -3 8 -12 15 -21
15 -8 0 -15 5 -15 11 0 5 -4 8 -9 5 -5 -3 -12 1 -15 10 -4 9 -9 14 -13 11 -3
-4 -13 -1 -21 6 -13 9 -14 9 -8 0 4 -7 3 -13 -3 -13 -5 0 -11 5 -13 10 -2 6
-14 12 -27 15 -12 2 -30 10 -39 17 -13 11 -14 11 -7 -2 8 -13 7 -13 -9 -1 -9
8 -13 17 -9 20 11 8 10 52 0 69 -5 6 -6 12 -3 12 3 0 -2 9 -12 20 -9 12 -18
25 -18 30 -1 6 -2 11 -4 13 -1 1 -3 11 -5 21 -2 10 -8 22 -13 25 -10 7 -8 326
3 381 3 19 8 44 10 55 2 11 6 36 9 55 3 19 8 46 11 60 4 14 8 36 11 50 3 14 8
34 11 45 7 22 12 46 16 85 1 14 6 31 10 38 5 6 5 12 1 12 -3 0 1 11 10 25 9
14 13 25 10 25 -4 0 1 9 11 20 10 11 15 20 10 20 -4 0 -2 6 4 13 6 8 8 17 4
20 -3 4 -1 7 6 7 7 0 9 5 6 10 -3 6 -1 10 5 10 6 0 9 4 5 9 -3 6 4 15 15 21
11 6 18 15 15 21 -4 5 -1 9 4 9 6 0 11 9 11 19 0 11 5 23 10 26 6 4 8 11 5 16
-4 5 -1 9 4 9 6 0 10 3 9 8 -1 4 8 29 20 56 12 27 22 55 22 62 0 8 5 14 10 14
6 0 10 6 10 13 0 7 9 32 20 55 11 22 20 46 20 52 0 5 4 10 8 10 5 0 9 6 9 13
0 6 17 47 37 90 20 43 36 83 36 88 0 5 5 9 12 9 6 0 9 3 5 6 -3 4 5 27 18 53
14 25 25 51 25 57 0 7 7 14 15 18 8 3 15 13 15 21 0 9 4 14 9 10 5 -3 12 4 16
15 3 11 10 20 15 20 5 0 7 6 4 14 -3 7 2 21 11 29 9 9 15 18 14 19 -5 8 14 48
22 48 6 0 8 4 5 9 -7 10 59 121 81 139 9 6 14 12 10 12 -4 0 1 10 12 22 11 11
18 25 15 30 -5 8 11 12 30 9 5 -1 4 5 -4 13 -12 16 -4 22 23 17 5 -1 6 3 2 9
-3 6 29 63 72 128 42 64 77 119 77 122 0 3 9 15 20 27 12 13 44 59 71 102 28
44 54 80 58 81 11 0 37 27 37 37 0 5 10 19 23 30 39 37 67 70 67 81 0 6 9 14
20 17 11 4 18 10 15 15 -7 11 20 32 29 22 4 -4 6 0 4 8 -2 8 3 14 10 12 8 -1
11 2 8 7 -4 5 2 14 11 20 10 6 14 11 9 11 -13 0 119 130 133 130 6 0 11 5 11
10 0 6 3 10 8 9 15 -2 52 14 52 23 0 5 5 6 10 3 6 -3 10 -2 10 3 0 13 70 43
82 36 7 -4 8 -2 4 5 -5 7 4 16 24 25 17 7 32 17 32 22 0 5 4 8 9 6 5 -1 9 5 9
14 0 8 4 13 9 10 5 -3 12 1 15 10 3 8 10 13 15 10 5 -3 14 7 21 23 7 19 17 28
26 24 8 -3 14 -1 14 5 0 12 95 82 112 82 6 0 8 3 5 7 -10 10 56 54 72 48 11
-4 12 -3 1 10 -10 12 -10 15 4 15 9 0 16 5 16 12 0 6 3 9 6 5 3 -3 17 6 30 20
13 14 28 22 35 17 7 -4 9 -3 6 3 -8 13 51 56 68 49 9 -3 12 0 8 10 -3 9 2 14
16 14 12 0 29 9 38 19 9 11 20 18 25 15 4 -3 8 -1 8 4 0 5 8 12 18 16 9 3 32
15 50 26 18 11 37 18 43 15 5 -3 6 0 3 8 -3 9 6 19 25 27 17 7 31 16 31 21 0
5 4 9 9 9 6 0 25 14 43 30 18 17 41 30 51 30 10 0 15 5 12 10 -3 6 1 10 10 10
9 0 13 5 10 10 -3 6 0 10 8 10 8 0 22 9 32 20 10 11 24 20 32 20 8 0 11 5 7
12 -5 7 -2 9 7 6 14 -5 42 15 33 24 -2 3 3 5 11 5 8 0 12 -5 9 -11 -3 -6 0 -4
8 4 22 26 108 71 120 64 7 -4 8 -3 4 5 -4 6 0 14 8 17 9 3 13 11 9 17 -4 6 -1
7 6 3 7 -5 20 -1 29 7 17 14 49 29 65 31 4 1 11 6 15 12 8 12 104 60 115 56 4
-1 7 3 7 9 0 6 6 9 12 7 7 -3 19 2 27 9 7 8 18 12 25 10 6 -2 17 3 25 10 7 8
20 12 28 9 8 -3 12 -2 9 3 -7 11 43 33 56 25 7 -5 8 -2 3 6 -6 10 -3 12 13 8
16 -4 19 -2 15 10 -5 11 -2 14 9 9 10 -3 19 0 22 9 3 9 10 13 15 9 5 -3 13 0
16 6 4 5 14 8 22 5 8 -3 12 -2 8 3 -3 5 8 16 25 25 20 9 28 10 24 3 -3 -7 1
-4 9 5 8 10 17 15 20 11 4 -3 7 -2 7 4 0 6 7 14 16 17 10 4 13 2 9 -7 -4 -6 0
-4 9 7 8 10 20 15 27 10 8 -4 10 -3 5 4 -4 7 -1 12 8 12 17 0 79 31 84 43 2 4
8 5 13 1 5 -3 9 0 9 6 0 6 5 8 10 5 6 -3 10 -1 10 4 0 6 5 11 11 11 6 0 23 9
39 20 15 11 30 17 34 13 3 -3 6 -1 6 5 0 7 21 22 48 35 26 12 49 25 52 28 8 8
74 34 83 31 4 -1 7 2 7 7 0 11 39 26 59 22 7 -1 10 2 6 8 -5 10 -1 12 20 11 3
-1 13 6 21 15 9 8 23 15 32 15 9 0 28 9 42 20 14 11 33 20 43 20 9 0 17 5 17
11 0 5 5 7 10 4 6 -3 10 -2 10 2 0 5 29 22 65 38 36 17 65 32 65 35 0 3 10 7
22 7 13 1 24 7 26 13 2 5 8 10 13 10 6 0 19 8 30 18 10 11 32 25 47 33 15 8
29 16 32 19 8 8 44 29 65 39 11 5 60 32 109 60 49 28 93 51 97 51 5 0 9 5 9
10 0 6 8 10 19 10 10 0 30 9 45 21 14 11 26 18 26 14 0 -4 7 0 15 7 34 31 45
38 45 31 0 -4 6 -1 13 7 7 8 19 16 27 18 8 2 37 14 63 28 26 14 52 22 56 20 5
-3 16 3 26 14 10 11 22 20 27 20 5 0 50 26 101 59 79 50 239 132 249 128 2 -1
2 0 1 2 -4 6 149 84 165 84 6 0 12 4 12 8 0 4 20 16 44 28 25 11 47 25 51 31
3 5 15 10 26 10 10 0 19 4 19 9 0 5 15 14 33 22 17 7 34 15 37 19 6 6 65 33
65 29 0 -1 20 10 45 26 25 16 50 28 57 28 7 0 14 6 17 14 3 7 15 13 26 13 11
0 20 5 20 12 0 6 3 9 6 5 3 -3 25 6 48 20 22 15 47 26 53 26 7 0 13 4 13 7 0
4 26 20 58 35 31 15 67 37 80 49 13 12 26 20 28 18 2 -1 19 5 37 15 17 9 39
18 47 20 9 1 38 12 65 25 28 12 52 23 55 23 3 1 23 10 45 20 22 9 74 30 117
46 42 15 85 32 95 38 10 5 72 36 138 68 66 31 153 77 194 100 128 75 327 167
341 158 5 -3 10 -1 12 3 3 7 112 60 196 94 17 7 32 16 32 20 0 5 11 8 25 8 24
0 29 9 28 48 -1 15 3 15 29 1 11 -6 42 -13 69 -16 42 -4 49 -2 50 14 2 32 -3
48 -19 63 -22 20 -98 51 -106 43 -3 -4 -6 -1 -6 5 0 7 -6 12 -14 12 -8 0 -17
7 -20 16 -3 9 -12 14 -18 12 -7 -3 -19 1 -26 9 -8 7 -17 11 -22 8 -4 -3 -11 2
-14 11 -3 8 -10 12 -16 9 -5 -3 -10 -1 -10 4 0 6 -7 11 -15 11 -8 0 -15 5 -15
10 0 6 -13 10 -29 10 -17 0 -33 5 -36 10 -4 6 -11 8 -16 4 -5 -3 -16 -1 -23 5
-15 12 -113 10 -133 -2 -6 -4 -15 -2 -19 4 -4 8 -3 9 4 5 7 -4 12 -2 12 3 0
12 -13 15 -23 4z m-2127 -218 c0 -2 -6 -8 -13 -14 -10 -8 -14 -7 -14 2 0 8 6
14 14 14 7 0 13 -1 13 -2z m-90 -29 c0 -2 -8 -10 -17 -17 -16 -13 -17 -12 -4
4 13 16 21 21 21 13z m-10564 -2782 c1 -9 0 -13 -4 -10 -3 4 -7 14 -8 22 -1 9
0 13 4 10 3 -4 7 -14 8 -22z m924 -1394 c0 -5 -5 -10 -11 -10 -5 0 -7 5 -4 10
3 6 8 10 11 10 2 0 4 -4 4 -10z m11 -33 c-10 -9 -11 -8 -5 6 3 10 9 15 12 12
3 -3 0 -11 -7 -18z m-2491 -241 c0 -3 -4 -8 -10 -11 -5 -3 -10 -1 -10 4 0 6 5
11 10 11 6 0 10 -2 10 -4z m3449 -645 c10 -7 7 -9 -12 -8 -14 1 -23 5 -20 10
6 9 15 9 32 -2z m1 -25 c0 -2 -7 -7 -16 -10 -8 -3 -12 -2 -9 4 6 10 25 14 25
6z m-64 -34 c-17 -16 -18 -16 -5 5 7 12 15 20 18 17 3 -2 -3 -12 -13 -22z
m125 -19 c-12 -20 -14 -14 -5 12 4 9 9 14 11 11 3 -2 0 -13 -6 -23z m89 -58
c0 -7 -30 -13 -34 -7 -3 4 4 9 15 9 10 1 19 0 19 -2z m295 -245 c3 -5 1 -10
-4 -10 -6 0 -11 5 -11 10 0 6 2 10 4 10 3 0 8 -4 11 -10z m305 -174 c0 -3 -4
-8 -10 -11 -5 -3 -10 -1 -10 4 0 6 5 11 10 11 6 0 10 -2 10 -4z m40 -20 c0 -2
-7 -7 -16 -10 -8 -3 -12 -2 -9 4 6 10 25 14 25 6z m745 -406 c-3 -5 -12 -10
-18 -10 -7 0 -6 4 3 10 19 12 23 12 15 0z m2055 -676 c0 -8 -19 -13 -24 -6 -3
5 1 9 9 9 8 0 15 -2 15 -3z m917 -1170 c-3 -3 -12 -4 -19 -1 -8 3 -5 6 6 6 11
1 17 -2 13 -5z m57 -116 c-3 -4 -12 -8 -20 -8 -8 0 -14 4 -14 8 0 4 9 8 19 8
11 0 17 -4 15 -8z m49 -119 c-8 -8 -13 -7 -18 2 -5 8 -4 10 3 5 7 -4 12 -2 12
5 0 7 3 9 7 6 4 -4 2 -12 -4 -18z m-2797 -301 c4 -7 3 -8 -4 -4 -7 4 -12 2
-12 -5 0 -7 -3 -10 -6 -6 -6 5 3 27 11 27 2 0 7 -5 11 -12z"/>
<path d="M6587 11369 c7 -7 15 -10 18 -7 3 3 -2 9 -12 12 -14 6 -15 5 -6 -5z"/>
<path d="M8559 11363 c-13 -16 -12 -17 4 -4 16 13 21 21 13 21 -2 0 -10 -8
-17 -17z"/>
<path d="M8916 11368 c3 -5 10 -6 15 -3 13 9 11 12 -6 12 -8 0 -12 -4 -9 -9z"/>
<path d="M8980 11376 c0 -2 8 -10 18 -17 15 -13 16 -12 3 4 -13 16 -21 21 -21
13z"/>
<path d="M10946 11368 c3 -5 10 -6 15 -3 13 9 11 12 -6 12 -8 0 -12 -4 -9 -9z"/>
<path d="M7950 11351 c0 -6 4 -13 10 -16 6 -3 7 1 4 9 -7 18 -14 21 -14 7z"/>
<path d="M6435 11330 c-3 -5 -1 -10 4 -10 6 0 11 5 11 10 0 6 -2 10 -4 10 -3
0 -8 -4 -11 -10z"/>
<path d="M7675 11330 c3 -5 8 -10 11 -10 2 0 4 5 4 10 0 6 -5 10 -11 10 -5 0
-7 -4 -4 -10z"/>
<path d="M7827 11329 c7 -7 15 -10 18 -7 3 3 -2 9 -12 12 -14 6 -15 5 -6 -5z"/>
<path d="M8015 11330 c3 -5 8 -10 11 -10 2 0 4 5 4 10 0 6 -5 10 -11 10 -5 0
-7 -4 -4 -10z"/>
<path d="M8670 11330 c0 -5 5 -10 11 -10 5 0 7 5 4 10 -3 6 -8 10 -11 10 -2 0
-4 -4 -4 -10z"/>
<path d="M8755 11330 c-3 -5 -1 -10 4 -10 6 0 11 5 11 10 0 6 -2 10 -4 10 -3
0 -8 -4 -11 -10z"/>
<path d="M8974 11326 c1 -8 5 -18 8 -22 4 -3 5 1 4 10 -1 8 -5 18 -8 22 -4 3
-5 -1 -4 -10z"/>
<path d="M10433 11325 c0 -8 4 -12 9 -9 5 3 6 10 3 15 -9 13 -12 11 -12 -6z"/>
<path d="M6225 11310 c-3 -6 1 -7 9 -4 18 7 21 14 7 14 -6 0 -13 -4 -16 -10z"/>
<path d="M6585 11290 c-3 -6 1 -7 9 -4 18 7 21 14 7 14 -6 0 -13 -4 -16 -10z"/>
<path d="M7455 11281 c-3 -5 -2 -12 3 -15 5 -3 9 1 9 9 0 17 -3 19 -12 6z"/>
<path d="M8013 11275 c0 -8 4 -12 9 -9 5 3 6 10 3 15 -9 13 -12 11 -12 -6z"/>
<path d="M8050 11270 c0 -5 5 -10 11 -10 5 0 7 5 4 10 -3 6 -8 10 -11 10 -2 0
-4 -4 -4 -10z"/>
<path d="M8276 11263 c-6 -14 -5 -15 5 -6 7 7 10 15 7 18 -3 3 -9 -2 -12 -12z"/>
<path d="M8419 11278 c-5 -18 -6 -38 -1 -34 7 8 12 36 6 36 -2 0 -4 -1 -5 -2z"/>
<path d="M7974 11246 c1 -8 5 -18 8 -22 4 -3 5 1 4 10 -1 8 -5 18 -8 22 -4 3
-5 -1 -4 -10z"/>
<path d="M8660 11250 c-9 -6 -10 -10 -3 -10 6 0 15 5 18 10 8 12 4 12 -15 0z"/>
<path d="M8767 11249 c7 -7 15 -10 18 -7 3 3 -2 9 -12 12 -14 6 -15 5 -6 -5z"/>
<path d="M8820 11250 c-9 -6 -10 -10 -3 -10 6 0 15 5 18 10 8 12 4 12 -15 0z"/>
<path d="M8899 11258 c-5 -18 -6 -38 -1 -34 7 8 12 36 6 36 -2 0 -4 -1 -5 -2z"/>
<path d="M9215 11250 c3 -5 8 -10 11 -10 2 0 4 5 4 10 0 6 -5 10 -11 10 -5 0
-7 -4 -4 -10z"/>
<path d="M7476 11237 c3 -10 9 -15 12 -12 3 3 0 11 -7 18 -10 9 -11 8 -5 -6z"/>
<path d="M9035 11239 c-4 -6 -5 -12 -2 -15 2 -3 7 2 10 11 7 17 1 20 -8 4z"/>
<path d="M9475 11239 c-4 -6 -5 -12 -2 -15 2 -3 7 2 10 11 7 17 1 20 -8 4z"/>
<path d="M8456 11232 c-3 -5 1 -9 9 -9 8 0 12 4 9 9 -3 4 -7 8 -9 8 -2 0 -6
-4 -9 -8z"/>
<path d="M9286 11232 c-3 -5 1 -9 9 -9 8 0 12 4 9 9 -3 4 -7 8 -9 8 -2 0 -6
-4 -9 -8z"/>
<path d="M9336 11232 c-3 -5 1 -9 9 -9 8 0 12 4 9 9 -3 4 -7 8 -9 8 -2 0 -6
-4 -9 -8z"/>
<path d="M9989 11213 c-13 -16 -12 -17 4 -4 16 13 21 21 13 21 -2 0 -10 -8
-17 -17z"/>
<path d="M7301 11206 c-9 -11 -9 -16 1 -22 7 -4 10 -4 6 1 -4 4 -3 14 3 22 6
7 9 13 6 13 -2 0 -10 -6 -16 -14z"/>
<path d="M10230 11211 c0 -6 4 -13 10 -16 6 -3 7 1 4 9 -7 18 -14 21 -14 7z"/>
<path d="M8493 11195 c0 -8 4 -12 9 -9 5 3 6 10 3 15 -9 13 -12 11 -12 -6z"/>
<path d="M7446 11188 c3 -5 10 -6 15 -3 13 9 11 12 -6 12 -8 0 -12 -4 -9 -9z"/>
<path d="M7496 11188 c3 -5 10 -6 15 -3 13 9 11 12 -6 12 -8 0 -12 -4 -9 -9z"/>
<path d="M7935 11191 c-3 -5 -2 -12 3 -15 5 -3 9 1 9 9 0 17 -3 19 -12 6z"/>
<path d="M8094 11192 c4 -3 14 -7 22 -8 9 -1 13 0 10 4 -4 3 -14 7 -22 8 -9 1
-13 0 -10 -4z"/>
<path d="M8155 11190 c-3 -5 -1 -10 4 -10 6 0 11 5 11 10 0 6 -2 10 -4 10 -3
0 -8 -4 -11 -10z"/>
<path d="M8856 11192 c-2 -4 -1 -14 4 -22 7 -11 9 -9 7 8 -1 24 -3 26 -11 14z"/>
<path d="M9176 11188 c3 -4 11 -5 19 -1 21 7 19 12 -4 10 -11 0 -18 -5 -15 -9z"/>
<path d="M8026 11172 c-3 -5 1 -9 9 -9 8 0 12 4 9 9 -3 4 -7 8 -9 8 -2 0 -6
-4 -9 -8z"/>
<path d="M8454 11166 c1 -8 5 -18 8 -22 4 -3 5 1 4 10 -1 8 -5 18 -8 22 -4 3
-5 -1 -4 -10z"/>
<path d="M8770 11169 c0 -5 5 -7 10 -4 6 3 10 8 10 11 0 2 -4 4 -10 4 -5 0
-10 -5 -10 -11z"/>
<path d="M9226 11168 c3 -5 10 -6 15 -3 13 9 11 12 -6 12 -8 0 -12 -4 -9 -9z"/>
<path d="M7393 11155 c0 -8 4 -12 9 -9 5 3 6 10 3 15 -9 13 -12 11 -12 -6z"/>
<path d="M7315 11150 c3 -5 8 -10 11 -10 2 0 4 5 4 10 0 6 -5 10 -11 10 -5 0
-7 -4 -4 -10z"/>
<path d="M7926 11152 c-3 -5 1 -9 9 -9 8 0 12 4 9 9 -3 4 -7 8 -9 8 -2 0 -6
-4 -9 -8z"/>
<path d="M8256 11151 c-3 -5 2 -15 12 -22 15 -12 16 -12 5 2 -7 9 -10 19 -6
22 3 4 4 7 0 7 -3 0 -8 -4 -11 -9z"/>
<path d="M8575 11149 c-3 -4 2 -6 10 -5 21 3 28 13 10 13 -9 0 -18 -4 -20 -8z"/>
<path d="M8726 11148 c3 -5 10 -6 15 -3 13 9 11 12 -6 12 -8 0 -12 -4 -9 -9z"/>
<path d="M8934 11152 c4 -3 14 -7 22 -8 9 -1 13 0 10 4 -4 3 -14 7 -22 8 -9 1
-13 0 -10 -4z"/>
<path d="M7464 11132 c4 -3 14 -7 22 -8 9 -1 13 0 10 4 -4 3 -14 7 -22 8 -9 1
-13 0 -10 -4z"/>
<path d="M7650 11129 c0 -5 5 -7 10 -4 6 3 10 8 10 11 0 2 -4 4 -10 4 -5 0
-10 -5 -10 -11z"/>
<path d="M7859 11138 c-5 -18 -6 -38 -1 -34 7 8 12 36 6 36 -2 0 -4 -1 -5 -2z"/>
<path d="M8190 11128 c0 -4 4 -8 9 -8 6 0 12 4 15 8 3 5 -1 9 -9 9 -8 0 -15
-4 -15 -9z"/>
<path d="M8654 11126 c1 -8 5 -18 8 -22 4 -3 5 1 4 10 -1 8 -5 18 -8 22 -4 3
-5 -1 -4 -10z"/>
<path d="M9467 11129 c7 -7 15 -10 18 -7 3 3 -2 9 -12 12 -14 6 -15 5 -6 -5z"/>
<path d="M10380 11136 c0 -2 8 -10 18 -17 15 -13 16 -12 3 4 -13 16 -21 21
-21 13z"/>
<path d="M7310 11115 c0 -7 30 -13 34 -7 3 4 -4 9 -15 9 -10 1 -19 0 -19 -2z"/>
<path d="M8135 11110 c-3 -5 -1 -10 4 -10 6 0 11 5 11 10 0 6 -2 10 -4 10 -3
0 -8 -4 -11 -10z"/>
<path d="M8336 11112 c-3 -5 1 -9 9 -9 8 0 12 4 9 9 -3 4 -7 8 -9 8 -2 0 -6
-4 -9 -8z"/>
<path d="M8375 11110 c3 -5 8 -10 11 -10 2 0 4 5 4 10 0 6 -5 10 -11 10 -5 0
-7 -4 -4 -10z"/>
<path d="M8735 11109 c-3 -4 2 -6 10 -5 21 3 28 13 10 13 -9 0 -18 -4 -20 -8z"/>
<path d="M8954 11112 c4 -3 14 -7 22 -8 9 -1 13 0 10 4 -4 3 -14 7 -22 8 -9 1
-13 0 -10 -4z"/>
<path d="M9016 11108 c3 -5 10 -6 15 -3 13 9 11 12 -6 12 -8 0 -12 -4 -9 -9z"/>
<path d="M9095 11109 c-3 -4 2 -6 10 -5 21 3 28 13 10 13 -9 0 -18 -4 -20 -8z"/>
<path d="M9374 11106 c1 -8 5 -18 8 -22 4 -3 5 1 4 10 -1 8 -5 18 -8 22 -4 3
-5 -1 -4 -10z"/>
<path d="M9916 11112 c-3 -4 4 -9 15 -9 23 -2 25 3 4 10 -8 4 -16 3 -19 -1z"/>
<path d="M7916 11097 c3 -10 9 -15 12 -12 3 3 0 11 -7 18 -10 9 -11 8 -5 -6z"/>
<path d="M7534 11086 c1 -8 5 -18 8 -22 4 -3 5 1 4 10 -1 8 -5 18 -8 22 -4 3
-5 -1 -4 -10z"/>
<path d="M7955 11091 c-3 -5 -2 -12 3 -15 5 -3 9 1 9 9 0 17 -3 19 -12 6z"/>
<path d="M7985 11090 c-3 -6 1 -7 9 -4 18 7 21 14 7 14 -6 0 -13 -4 -16 -10z"/>
<path d="M8539 11098 c-5 -18 -6 -38 -1 -34 7 8 12 36 6 36 -2 0 -4 -1 -5 -2z"/>
<path d="M8619 11098 c-5 -18 -6 -38 -1 -34 7 8 12 36 6 36 -2 0 -4 -1 -5 -2z"/>
<path d="M8780 11096 c0 -2 8 -10 18 -17 15 -13 16 -12 3 4 -13 16 -21 21 -21
13z"/>
<path d="M8876 11083 c-6 -14 -5 -15 5 -6 7 7 10 15 7 18 -3 3 -9 -2 -12 -12z"/>
<path d="M9715 11090 c-3 -5 -1 -10 4 -10 6 0 11 5 11 10 0 6 -2 10 -4 10 -3
0 -8 -4 -11 -10z"/>
<path d="M9787 11089 c7 -7 15 -10 18 -7 3 3 -2 9 -12 12 -14 6 -15 5 -6 -5z"/>
<path d="M7655 11081 c-3 -5 -2 -12 3 -15 5 -3 9 1 9 9 0 17 -3 19 -12 6z"/>
<path d="M7495 11070 c3 -5 8 -10 11 -10 2 0 4 5 4 10 0 6 -5 10 -11 10 -5 0
-7 -4 -4 -10z"/>
<path d="M8150 11075 c0 -7 30 -13 34 -7 3 4 -4 9 -15 9 -10 1 -19 0 -19 -2z"/>
<path d="M8216 11068 c3 -5 10 -6 15 -3 13 9 11 12 -6 12 -8 0 -12 -4 -9 -9z"/>
<path d="M8256 11072 c-2 -4 -1 -14 4 -22 7 -11 9 -9 7 8 -1 24 -3 26 -11 14z"/>
<path d="M8455 11070 c3 -5 8 -10 11 -10 2 0 4 5 4 10 0 6 -5 10 -11 10 -5 0
-7 -4 -4 -10z"/>
<path d="M9210 11070 c0 -5 5 -10 11 -10 5 0 7 5 4 10 -3 6 -8 10 -11 10 -2 0
-4 -4 -4 -10z"/>
<path d="M9246 11068 c3 -5 10 -6 15 -3 13 9 11 12 -6 12 -8 0 -12 -4 -9 -9z"/>
<path d="M9295 11070 c-3 -5 -1 -10 4 -10 6 0 11 5 11 10 0 6 -2 10 -4 10 -3
0 -8 -4 -11 -10z"/>
<path d="M10514 11056 c1 -8 5 -18 8 -22 4 -3 5 1 4 10 -1 8 -5 18 -8 22 -4 3
-5 -1 -4 -10z"/>
<path d="M8020 11056 c0 -2 8 -10 18 -17 15 -13 16 -12 3 4 -13 16 -21 21 -21
13z"/>
<path d="M9146 11052 c-3 -5 1 -9 9 -9 8 0 12 4 9 9 -3 4 -7 8 -9 8 -2 0 -6
-4 -9 -8z"/>
<path d="M9890 11049 c0 -5 5 -7 10 -4 6 3 10 8 10 11 0 2 -4 4 -10 4 -5 0
-10 -5 -10 -11z"/>
<path d="M7619 11038 c-5 -18 -6 -38 -1 -34 7 8 12 36 6 36 -2 0 -4 -1 -5 -2z"/>
<path d="M7855 11030 c-3 -5 -1 -10 4 -10 6 0 11 5 11 10 0 6 -2 10 -4 10 -3
0 -8 -4 -11 -10z"/>
<path d="M7895 11030 c3 -5 8 -10 11 -10 2 0 4 5 4 10 0 6 -5 10 -11 10 -5 0
-7 -4 -4 -10z"/>
<path d="M8095 11030 c-3 -5 -1 -10 4 -10 6 0 11 5 11 10 0 6 -2 10 -4 10 -3
0 -8 -4 -11 -10z"/>
<path d="M8170 11030 c0 -5 5 -10 11 -10 5 0 7 5 4 10 -3 6 -8 10 -11 10 -2 0
-4 -4 -4 -10z"/>
<path d="M8495 11030 c-3 -5 -1 -10 4 -10 6 0 11 5 11 10 0 6 -2 10 -4 10 -3
0 -8 -4 -11 -10z"/>
<path d="M8650 11030 c0 -5 5 -10 11 -10 5 0 7 5 4 10 -3 6 -8 10 -11 10 -2 0
-4 -4 -4 -10z"/>
<path d="M8936 11032 c-3 -5 1 -9 9 -9 8 0 12 4 9 9 -3 4 -7 8 -9 8 -2 0 -6
-4 -9 -8z"/>
<path d="M8970 11030 c0 -5 5 -10 11 -10 5 0 7 5 4 10 -3 6 -8 10 -11 10 -2 0
-4 -4 -4 -10z"/>
<path d="M9595 11030 c-3 -5 -1 -10 4 -10 6 0 11 5 11 10 0 6 -2 10 -4 10 -3
0 -8 -4 -11 -10z"/>
<path d="M9716 11023 c-6 -14 -5 -15 5 -6 7 7 10 15 7 18 -3 3 -9 -2 -12 -12z"/>
<path d="M11030 11036 c0 -2 7 -7 16 -10 8 -3 12 -2 9 4 -6 10 -25 14 -25 6z"/>
<path d="M8830 11026 c0 -2 8 -10 18 -17 15 -13 16 -12 3 4 -13 16 -21 21 -21
13z"/>
<path d="M9150 11026 c0 -2 8 -10 18 -17 15 -13 16 -12 3 4 -13 16 -21 21 -21
13z"/>
<path d="M9195 11021 c-3 -5 -2 -12 3 -15 5 -3 9 1 9 9 0 17 -3 19 -12 6z"/>
<path d="M7776 11012 c-3 -4 4 -9 15 -9 23 -2 25 3 4 10 -8 4 -16 3 -19 -1z"/>
<path d="M8010 11011 c0 -6 4 -13 10 -16 6 -3 7 1 4 9 -7 18 -14 21 -14 7z"/>
<path d="M8593 11005 c0 -8 4 -12 9 -9 5 3 6 10 3 15 -9 13 -12 11 -12 -6z"/>
<path d="M8873 11005 c0 -8 4 -12 9 -9 5 3 6 10 3 15 -9 13 -12 11 -12 -6z"/>
<path d="M9230 11010 c0 -5 5 -10 11 -10 5 0 7 5 4 10 -3 6 -8 10 -11 10 -2 0
-4 -4 -4 -10z"/>
<path d="M9270 11011 c0 -6 4 -13 10 -16 6 -3 7 1 4 9 -7 18 -14 21 -14 7z"/>
<path d="M9374 11006 c1 -8 5 -18 8 -22 4 -3 5 1 4 10 -1 8 -5 18 -8 22 -4 3
-5 -1 -4 -10z"/>
<path d="M7690 10989 c0 -5 5 -7 10 -4 6 3 10 8 10 11 0 2 -4 4 -10 4 -5 0
-10 -5 -10 -11z"/>
<path d="M8090 10989 c0 -5 5 -7 10 -4 6 3 10 8 10 11 0 2 -4 4 -10 4 -5 0
-10 -5 -10 -11z"/>
<path d="M8490 10989 c0 -5 5 -7 10 -4 6 3 10 8 10 11 0 2 -4 4 -10 4 -5 0
-10 -5 -10 -11z"/>
<path d="M9439 10983 c-12 -16 -12 -17 2 -6 9 7 20 9 24 5 5 -4 5 -1 1 6 -9
16 -11 15 -27 -5z"/>
<path d="M9055 10981 c-3 -5 -2 -12 3 -15 5 -3 9 1 9 9 0 17 -3 19 -12 6z"/>
<path d="M8006 10972 c-3 -5 1 -9 9 -9 8 0 12 4 9 9 -3 4 -7 8 -9 8 -2 0 -6
-4 -9 -8z"/>
<path d="M8880 10970 c-9 -6 -10 -10 -3 -10 6 0 15 5 18 10 8 12 4 12 -15 0z"/>
<path d="M9159 10963 c-13 -16 -12 -17 4 -4 16 13 21 21 13 21 -2 0 -10 -8
-17 -17z"/>
<path d="M10047 10969 c7 -7 15 -10 18 -7 3 3 -2 9 -12 12 -14 6 -15 5 -6 -5z"/>
<path d="M8795 10961 c-3 -5 -2 -12 3 -15 5 -3 9 1 9 9 0 17 -3 19 -12 6z"/>
<path d="M8450 10950 c0 -5 5 -10 11 -10 5 0 7 5 4 10 -3 6 -8 10 -11 10 -2 0
-4 -4 -4 -10z"/>
<path d="M9330 10949 c0 -5 5 -7 10 -4 6 3 10 8 10 11 0 2 -4 4 -10 4 -5 0
-10 -5 -10 -11z"/>
<path d="M9534 10952 c4 -3 14 -7 22 -8 9 -1 13 0 10 4 -4 3 -14 7 -22 8 -9 1
-13 0 -10 -4z"/>
<path d="M9790 10951 c0 -6 4 -13 10 -16 6 -3 7 1 4 9 -7 18 -14 21 -14 7z"/>
<path d="M8356 10937 c3 -10 9 -15 12 -12 3 3 0 11 -7 18 -10 9 -11 8 -5 -6z"/>
<path d="M8394 10939 c-3 -6 -2 -15 3 -20 5 -5 9 -1 9 11 0 23 -2 24 -12 9z"/>
<path d="M8709 10933 c-13 -16 -12 -17 4 -4 16 13 21 21 13 21 -2 0 -10 -8
-17 -17z"/>
<path d="M10155 10941 c-3 -5 -2 -12 3 -15 5 -3 9 1 9 9 0 17 -3 19 -12 6z"/>
<path d="M8735 10930 c-5 -8 42 -7 49 1 3 3 -6 5 -20 5 -14 0 -27 -3 -29 -6z"/>
<path d="M9084 10932 c4 -3 14 -7 22 -8 9 -1 13 0 10 4 -4 3 -14 7 -22 8 -9 1
-13 0 -10 -4z"/>
<path d="M9956 10917 c3 -10 9 -15 12 -12 3 3 0 11 -7 18 -10 9 -11 8 -5 -6z"/>
<path d="M7990 10906 c7 -7 13 -7 20 0 6 6 3 10 -10 10 -13 0 -16 -4 -10 -10z"/>
<path d="M9200 10910 c-9 -6 -10 -10 -3 -10 6 0 15 5 18 10 8 12 4 12 -15 0z"/>
<path d="M9450 10910 c0 -5 5 -10 11 -10 5 0 7 5 4 10 -3 6 -8 10 -11 10 -2 0
-4 -4 -4 -10z"/>
<path d="M9596 10908 c3 -5 10 -6 15 -3 13 9 11 12 -6 12 -8 0 -12 -4 -9 -9z"/>
<path d="M9655 10910 c-3 -5 -1 -10 4 -10 6 0 11 5 11 10 0 6 -2 10 -4 10 -3
0 -8 -4 -11 -10z"/>
<path d="M10195 10910 c-3 -5 -1 -10 4 -10 6 0 11 5 11 10 0 6 -2 10 -4 10 -3
0 -8 -4 -11 -10z"/>
<path d="M8210 10906 c0 -2 8 -10 18 -17 15 -13 16 -12 3 4 -13 16 -21 21 -21
13z"/>
<path d="M8775 10899 c-4 -6 -5 -12 -2 -15 2 -3 7 2 10 11 7 17 1 20 -8 4z"/>
<path d="M9096 10897 c3 -10 9 -15 12 -12 3 3 0 11 -7 18 -10 9 -11 8 -5 -6z"/>
<path d="M11016 10897 c3 -10 9 -15 12 -12 3 3 0 11 -7 18 -10 9 -11 8 -5 -6z"/>
<path d="M7945 10890 c-3 -6 1 -7 9 -4 18 7 21 14 7 14 -6 0 -13 -4 -16 -10z"/>
<path d="M8313 10885 c0 -8 4 -12 9 -9 5 3 6 10 3 15 -9 13 -12 11 -12 -6z"/>
<path d="M8730 10896 c0 -2 7 -7 16 -10 8 -3 12 -2 9 4 -6 10 -25 14 -25 6z"/>
<path d="M8975 10891 c-3 -5 -2 -12 3 -15 5 -3 9 1 9 9 0 17 -3 19 -12 6z"/>
<path d="M10476 10888 c3 -5 10 -6 15 -3 13 9 11 12 -6 12 -8 0 -12 -4 -9 -9z"/>
<path d="M8350 10869 c0 -5 5 -7 10 -4 6 3 10 8 10 11 0 2 -4 4 -10 4 -5 0
-10 -5 -10 -11z"/>
<path d="M8385 10870 c-3 -6 1 -7 9 -4 18 7 21 14 7 14 -6 0 -13 -4 -16 -10z"/>
<path d="M9190 10876 c0 -2 7 -7 16 -10 8 -3 12 -2 9 4 -6 10 -25 14 -25 6z"/>
<path d="M9330 10869 c0 -5 5 -7 10 -4 6 3 10 8 10 11 0 2 -4 4 -10 4 -5 0
-10 -5 -10 -11z"/>
<path d="M9470 10875 c0 -7 30 -13 34 -7 3 4 -4 9 -15 9 -10 1 -19 0 -19 -2z"/>
<path d="M9654 10872 c4 -3 14 -7 22 -8 9 -1 13 0 10 4 -4 3 -14 7 -22 8 -9 1
-13 0 -10 -4z"/>
<path d="M9726 10868 c3 -5 10 -6 15 -3 13 9 11 12 -6 12 -8 0 -12 -4 -9 -9z"/>
<path d="M9954 10872 c4 -3 14 -7 22 -8 9 -1 13 0 10 4 -4 3 -14 7 -22 8 -9 1
-13 0 -10 -4z"/>
<path d="M8589 10853 c-13 -16 -12 -17 4 -4 16 13 21 21 13 21 -2 0 -10 -8
-17 -17z"/>
<path d="M8769 10853 c-13 -16 -12 -17 4 -4 16 13 21 21 13 21 -2 0 -10 -8
-17 -17z"/>
<path d="M8934 10850 c0 -13 4 -16 10 -10 7 7 7 13 0 20 -6 6 -10 3 -10 -10z"/>
<path d="M9075 10860 c-4 -6 -10 -8 -14 -6 -4 3 -8 -1 -8 -9 0 -13 4 -12 19 2
18 16 22 23 14 23 -3 0 -8 -5 -11 -10z"/>
<path d="M8076 10852 c-3 -5 1 -9 9 -9 8 0 12 4 9 9 -3 4 -7 8 -9 8 -2 0 -6
-4 -9 -8z"/>
<path d="M8159 10843 c-12 -16 -12 -17 2 -6 9 7 20 9 24 5 5 -4 5 -1 1 6 -9
16 -11 15 -27 -5z"/>
<path d="M8266 10848 c3 -5 10 -6 15 -3 13 9 11 12 -6 12 -8 0 -12 -4 -9 -9z"/>
<path d="M8616 10852 c-3 -4 4 -9 15 -9 23 -2 25 3 4 10 -8 4 -16 3 -19 -1z"/>
<path d="M8680 10856 c0 -2 8 -10 18 -17 15 -13 16 -12 3 4 -13 16 -21 21 -21
13z"/>
<path d="M8726 10852 c-3 -5 1 -9 9 -9 8 0 12 4 9 9 -3 4 -7 8 -9 8 -2 0 -6
-4 -9 -8z"/>
<path d="M8800 10850 c-9 -6 -10 -10 -3 -10 6 0 15 5 18 10 8 12 4 12 -15 0z"/>
<path d="M8995 10840 c10 -11 20 -20 23 -20 3 0 -3 9 -13 20 -10 11 -20 20
-23 20 -3 0 3 -9 13 -20z"/>
<path d="M9126 10852 c-3 -5 1 -9 9 -9 8 0 12 4 9 9 -3 4 -7 8 -9 8 -2 0 -6
-4 -9 -8z"/>
<path d="M9590 10849 c0 -5 5 -7 10 -4 6 3 10 8 10 11 0 2 -4 4 -10 4 -5 0
-10 -5 -10 -11z"/>
<path d="M10110 10856 c0 -2 7 -7 16 -10 8 -3 12 -2 9 4 -6 10 -25 14 -25 6z"/>
<path d="M10716 10848 c3 -5 10 -6 15 -3 13 9 11 12 -6 12 -8 0 -12 -4 -9 -9z"/>
<path d="M8229 10833 c-13 -16 -12 -17 4 -4 16 13 21 21 13 21 -2 0 -10 -8
-17 -17z"/>
<path d="M8516 10831 c-3 -5 2 -15 12 -22 15 -12 16 -12 5 2 -7 9 -10 19 -6
22 3 4 4 7 0 7 -3 0 -8 -4 -11 -9z"/>
<path d="M8840 10830 c-9 -6 -10 -10 -3 -10 6 0 15 5 18 10 8 12 4 12 -15 0z"/>
<path d="M8960 10825 c-7 -8 -16 -12 -21 -9 -5 3 -9 1 -9 -5 0 -5 9 -9 20 -8
10 1 17 3 15 6 -3 2 0 10 6 18 6 7 9 13 6 13 -2 0 -10 -7 -17 -15z"/>
<path d="M9490 10830 c0 -5 5 -10 11 -10 5 0 7 5 4 10 -3 6 -8 10 -11 10 -2 0
-4 -4 -4 -10z"/>
<path d="M9535 10830 c3 -5 8 -10 11 -10 2 0 4 5 4 10 0 6 -5 10 -11 10 -5 0
-7 -4 -4 -10z"/>
<path d="M9815 10831 c-3 -5 -2 -12 3 -15 5 -3 9 1 9 9 0 17 -3 19 -12 6z"/>
<path d="M9930 10830 c0 -5 5 -10 11 -10 5 0 7 5 4 10 -3 6 -8 10 -11 10 -2 0
-4 -4 -4 -10z"/>
<path d="M8295 10821 c-3 -5 -2 -12 3 -15 5 -3 9 1 9 9 0 17 -3 19 -12 6z"/>
<path d="M8635 10820 c-4 -6 -11 -7 -17 -4 -7 4 -8 2 -4 -5 6 -9 11 -9 22 0
14 11 18 19 10 19 -3 0 -8 -5 -11 -10z"/>
<path d="M8877 10820 c7 -8 20 -15 29 -16 9 -1 13 1 9 4 -4 4 -10 7 -13 7 -4
0 -14 4 -22 9 -12 7 -13 6 -3 -4z"/>
<path d="M8155 10810 c3 -5 8 -10 11 -10 2 0 4 5 4 10 0 6 -5 10 -11 10 -5 0
-7 -4 -4 -10z"/>
<path d="M8250 10816 c0 -2 7 -7 16 -10 8 -3 12 -2 9 4 -6 10 -25 14 -25 6z"/>
<path d="M8684 10812 c4 -3 14 -7 22 -8 9 -1 13 0 10 4 -4 3 -14 7 -22 8 -9 1
-13 0 -10 -4z"/>
<path d="M9050 10811 c0 -6 4 -13 10 -16 6 -3 7 1 4 9 -7 18 -14 21 -14 7z"/>
<path d="M9237 10805 c-4 -8 -3 -16 1 -19 4 -3 9 4 9 15 2 23 -3 25 -10 4z"/>
<path d="M9560 10810 c-9 -6 -10 -10 -3 -10 6 0 15 5 18 10 8 12 4 12 -15 0z"/>
<path d="M9701 10806 c-9 -11 -9 -16 1 -22 7 -4 10 -4 6 1 -4 4 -3 14 3 22 6
7 9 13 6 13 -2 0 -10 -6 -16 -14z"/>
<path d="M9870 10808 c0 -4 4 -8 9 -8 6 0 12 4 15 8 3 5 -1 9 -9 9 -8 0 -15
-4 -15 -9z"/>
<path d="M8230 10796 c0 -2 7 -7 16 -10 8 -3 12 -2 9 4 -6 10 -25 14 -25 6z"/>
<path d="M8350 10792 c0 -5 7 -9 15 -9 8 0 12 4 9 9 -3 4 -9 8 -15 8 -5 0 -9
-4 -9 -8z"/>
<path d="M9110 10792 c0 -5 10 -17 23 -28 22 -19 22 -19 4 2 -9 11 -14 24 -10
27 3 4 1 7 -5 7 -7 0 -12 -4 -12 -8z"/>
<path d="M9515 10790 c-3 -5 -1 -10 4 -10 6 0 11 5 11 10 0 6 -2 10 -4 10 -3
0 -8 -4 -11 -10z"/>
<path d="M10006 10792 c-3 -5 1 -9 9 -9 8 0 12 4 9 9 -3 4 -7 8 -9 8 -2 0 -6
-4 -9 -8z"/>
<path d="M10270 10790 c0 -5 5 -10 11 -10 5 0 7 5 4 10 -3 6 -8 10 -11 10 -2
0 -4 -4 -4 -10z"/>
<path d="M8286 10775 c-18 -14 -18 -14 1 -12 11 0 20 7 20 14 0 7 -1 13 -1 13
-1 0 -9 -7 -20 -15z"/>
<path d="M8622 10774 c10 -10 20 -16 22 -13 3 3 -5 11 -17 18 -21 13 -21 12
-5 -5z"/>
<path d="M8769 10773 c-13 -16 -12 -17 4 -4 16 13 21 21 13 21 -2 0 -10 -8
-17 -17z"/>
<path d="M8435 10771 c-3 -5 -2 -12 3 -15 5 -3 9 1 9 9 0 17 -3 19 -12 6z"/>
<path d="M8513 10773 c4 -3 1 -13 -6 -22 -11 -14 -10 -14 5 -2 16 12 16 31 1
31 -4 0 -3 -3 0 -7z"/>
<path d="M8726 10772 c-3 -5 1 -9 9 -9 8 0 12 4 9 9 -3 4 -7 8 -9 8 -2 0 -6
-4 -9 -8z"/>
<path d="M9035 10772 c3 -3 0 -10 -5 -17 -7 -8 -5 -12 5 -12 8 0 13 3 10 5 -3
3 0 10 5 17 7 8 5 12 -5 12 -8 0 -13 -3 -10 -5z"/>
<path d="M9080 10776 c0 -2 8 -10 18 -17 15 -13 16 -12 3 4 -13 16 -21 21 -21
13z"/>
<path d="M9336 10771 c8 -8 43 -8 38 0 -2 4 -13 7 -24 6 -10 -1 -17 -3 -14 -6z"/>
<path d="M10053 10761 c0 -11 5 -18 9 -15 4 3 5 11 1 19 -7 21 -12 19 -10 -4z"/>
<path d="M8915 10759 c-4 -6 -5 -12 -2 -15 2 -3 7 2 10 11 7 17 1 20 -8 4z"/>
<path d="M9915 10760 c-4 -6 -11 -7 -17 -4 -7 4 -8 2 -4 -5 6 -9 11 -9 22 0
14 11 18 19 10 19 -3 0 -8 -5 -11 -10z"/>
<path d="M8386 10748 c3 -4 9 -8 15 -8 5 0 9 4 9 8 0 5 -7 9 -15 9 -8 0 -12
-4 -9 -9z"/>
<path d="M9655 10750 c3 -5 8 -10 11 -10 2 0 4 5 4 10 0 6 -5 10 -11 10 -5 0
-7 -4 -4 -10z"/>
<path d="M9775 10750 c-3 -5 -1 -10 4 -10 6 0 11 5 11 10 0 6 -2 10 -4 10 -3
0 -8 -4 -11 -10z"/>
<path d="M9815 10750 c-3 -5 -1 -10 4 -10 6 0 11 5 11 10 0 6 -2 10 -4 10 -3
0 -8 -4 -11 -10z"/>
<path d="M8739 10748 c-5 -18 -6 -38 -1 -34 7 8 12 36 6 36 -2 0 -4 -1 -5 -2z"/>
<path d="M8850 10746 c0 -2 8 -10 18 -17 15 -13 16 -12 3 4 -13 16 -21 21 -21
13z"/>
<path d="M8941 10733 c8 -13 20 -23 28 -23 8 0 12 1 10 3 -2 1 -15 11 -28 22
l-24 20 14 -22z"/>
<path d="M9251 10737 c-8 -10 -7 -14 2 -14 8 0 14 6 14 14 0 7 -1 13 -2 13 -2
0 -8 -6 -14 -13z"/>
<path d="M10475 10741 c-3 -5 -2 -12 3 -15 5 -3 9 1 9 9 0 17 -3 19 -12 6z"/>
<path d="M8320 10730 c-9 -6 -10 -10 -3 -10 6 0 15 5 18 10 8 12 4 12 -15 0z"/>
<path d="M8456 10728 c3 -5 10 -6 15 -3 13 9 11 12 -6 12 -8 0 -12 -4 -9 -9z"/>
<path d="M9126 10732 c-3 -5 1 -9 9 -9 8 0 12 4 9 9 -3 4 -7 8 -9 8 -2 0 -6
-4 -9 -8z"/>
<path d="M8895 10720 c-4 -6 1 -7 11 -3 13 5 15 3 9 -7 -5 -9 -4 -11 4 -6 6 4
9 12 6 17 -8 12 -22 12 -30 -1z"/>
<path d="M9470 10720 c-9 -6 -10 -10 -3 -10 6 0 15 5 18 10 8 12 4 12 -15 0z"/>
<path d="M8350 10716 c0 -2 7 -7 16 -10 8 -3 12 -2 9 4 -6 10 -25 14 -25 6z"/>
<path d="M8516 10712 c-2 -4 -1 -14 4 -22 7 -11 9 -9 7 8 -1 24 -3 26 -11 14z"/>
<path d="M8580 10715 c0 -2 6 -8 13 -14 10 -8 14 -7 14 2 0 8 -6 14 -14 14 -7
0 -13 -1 -13 -2z"/>
<path d="M8630 10701 c10 -19 77 -23 77 -5 0 7 -5 10 -11 6 -19 -12 -57 -10
-52 3 2 6 -2 12 -10 12 -9 0 -10 -5 -4 -16z"/>
<path d="M8993 10703 c0 -9 4 -10 14 -2 7 6 13 12 13 14 0 1 -6 2 -13 2 -8 0
-14 -6 -14 -14z"/>
<path d="M9186 10712 c-2 -4 4 -8 14 -8 10 0 16 4 14 8 -3 4 -9 8 -14 8 -5 0
-11 -4 -14 -8z"/>
<path d="M9275 10711 c-3 -5 -2 -12 3 -15 5 -3 9 1 9 9 0 17 -3 19 -12 6z"/>
<path d="M9695 10710 c3 -5 8 -10 11 -10 2 0 4 5 4 10 0 6 -5 10 -11 10 -5 0
-7 -4 -4 -10z"/>
<path d="M9979 10718 c-5 -18 -6 -38 -1 -34 7 8 12 36 6 36 -2 0 -4 -1 -5 -2z"/>
<path d="M10014 10706 c1 -8 5 -18 8 -22 4 -3 5 1 4 10 -1 8 -5 18 -8 22 -4 3
-5 -1 -4 -10z"/>
<path d="M10150 10710 c0 -5 5 -10 11 -10 5 0 7 5 4 10 -3 6 -8 10 -11 10 -2
0 -4 -4 -4 -10z"/>
<path d="M8462 10694 c10 -10 20 -16 22 -13 3 3 -5 11 -17 18 -21 13 -21 12
-5 -5z"/>
<path d="M8845 10690 c-18 -20 -18 -21 0 -14 14 6 16 4 10 -7 -4 -8 -4 -11 0
-6 7 6 16 47 10 47 -1 0 -10 -9 -20 -20z"/>
<path d="M9086 10695 c-11 -8 -15 -15 -9 -15 6 0 16 7 23 15 16 19 11 19 -14
0z"/>
<path d="M8560 10696 c0 -2 8 -10 18 -17 15 -13 16 -12 3 4 -13 16 -21 21 -21
13z"/>
<path d="M8919 10683 c-7 -10 -9 -15 -5 -11 5 4 15 0 23 -10 13 -15 13 -15 4
5 -8 16 -8 23 2 26 7 4 8 6 1 6 -6 1 -18 -7 -25 -16z"/>
<path d="M9019 10683 c-13 -16 -12 -17 4 -4 9 7 17 15 17 17 0 8 -8 3 -21 -13z"/>
<path d="M9299 10683 c-13 -16 -12 -17 4 -4 9 7 17 15 17 17 0 8 -8 3 -21 -13z"/>
<path d="M9426 10688 c3 -5 10 -6 15 -3 13 9 11 12 -6 12 -8 0 -12 -4 -9 -9z"/>
<path d="M9393 10677 c0 -8 6 -14 14 -14 9 0 10 4 2 14 -6 7 -12 13 -14 13 -1
0 -2 -6 -2 -13z"/>
<path d="M8546 10672 c-3 -5 1 -9 9 -9 8 0 12 4 9 9 -3 4 -7 8 -9 8 -2 0 -6
-4 -9 -8z"/>
<path d="M8787 10667 c2 -4 -1 -16 -8 -25 -11 -14 -11 -15 0 -5 16 14 44 6 34
-11 -3 -6 -2 -7 2 -3 17 15 14 36 -3 29 -14 -5 -15 -3 -5 9 10 12 8 15 -7 15
-10 0 -16 -4 -13 -9z"/>
<path d="M8956 10668 c3 -5 10 -6 15 -3 13 9 11 12 -6 12 -8 0 -12 -4 -9 -9z"/>
<path d="M9036 10672 c-3 -5 1 -9 9 -9 8 0 12 4 9 9 -3 4 -7 8 -9 8 -2 0 -6
-4 -9 -8z"/>
<path d="M9695 10670 c3 -5 8 -10 11 -10 2 0 4 5 4 10 0 6 -5 10 -11 10 -5 0
-7 -4 -4 -10z"/>
<path d="M9856 10668 c3 -5 10 -6 15 -3 13 9 11 12 -6 12 -8 0 -12 -4 -9 -9z"/>
<path d="M9899 10678 c-5 -18 -6 -38 -1 -34 7 8 12 36 6 36 -2 0 -4 -1 -5 -2z"/>
<path d="M8700 10659 c0 -5 -6 -7 -12 -3 -7 4 -9 3 -5 -1 13 -15 36 -14 30 1
-6 17 -13 18 -13 3z"/>
<path d="M8734 10656 c1 -8 5 -18 8 -22 4 -3 5 1 4 10 -1 8 -5 18 -8 22 -4 3
-5 -1 -4 -10z"/>
<path d="M8897 10649 c4 -15 2 -18 -11 -13 -9 3 -16 2 -16 -4 0 -15 31 -8 41
10 6 11 4 18 -5 21 -10 4 -12 0 -9 -14z"/>
<path d="M9219 10668 c-5 -18 -6 -38 -1 -34 7 8 12 36 6 36 -2 0 -4 -1 -5 -2z"/>
<path d="M9955 10661 c-3 -5 -2 -12 3 -15 5 -3 9 1 9 9 0 17 -3 19 -12 6z"/>
<path d="M10395 10659 c-4 -6 -5 -12 -2 -15 2 -3 7 2 10 11 7 17 1 20 -8 4z"/>
<path d="M8993 10645 c0 -8 4 -12 9 -9 4 3 8 9 8 15 0 5 -4 9 -8 9 -5 0 -9 -7
-9 -15z"/>
<path d="M9320 10656 c0 -2 8 -10 18 -17 15 -13 16 -12 3 4 -13 16 -21 21 -21
13z"/>
<path d="M10054 10646 c1 -8 5 -18 8 -22 4 -3 5 1 4 10 -1 8 -5 18 -8 22 -4 3
-5 -1 -4 -10z"/>
<path d="M9390 10640 c-9 -6 -10 -10 -3 -10 6 0 15 5 18 10 8 12 4 12 -15 0z"/>
<path d="M8618 10628 c5 -5 16 -8 23 -6 8 3 3 7 -10 11 -17 4 -21 3 -13 -5z"/>
<path d="M8916 10623 c-6 -14 -5 -15 5 -6 7 7 10 15 7 18 -3 3 -9 -2 -12 -12z"/>
<path d="M9147 10623 c3 -7 6 -13 8 -13 1 0 7 6 13 13 8 10 6 13 -7 13 -11 0
-17 -6 -14 -13z"/>
<path d="M9237 10626 c-4 -9 -15 -13 -26 -11 -11 2 -26 -4 -33 -13 -11 -15
-11 -15 2 -6 8 6 23 10 32 9 17 -3 45 21 36 31 -3 3 -8 -2 -11 -10z"/>
<path d="M9850 10629 c0 -5 5 -7 10 -4 6 3 10 8 10 11 0 2 -4 4 -10 4 -5 0
-10 -5 -10 -11z"/>
<path d="M8691 10614 c0 -11 3 -14 6 -6 3 7 2 16 -1 19 -3 4 -6 -2 -5 -13z"/>
<path d="M8850 10619 c0 -5 -4 -7 -10 -4 -6 4 -7 -1 -3 -11 4 -11 8 -13 11 -6
2 7 8 10 13 7 5 -4 6 1 3 9 -7 18 -14 21 -14 5z"/>
<path d="M9053 10608 c0 -13 1 -17 4 -10 3 6 10 9 16 5 7 -4 6 1 -2 10 -17 21
-17 21 -18 -5z"/>
<path d="M9795 10621 c-3 -5 -2 -12 3 -15 5 -3 9 1 9 9 0 17 -3 19 -12 6z"/>
<path d="M9910 10626 c0 -2 8 -10 18 -17 15 -13 16 -12 3 4 -13 16 -21 21 -21
13z"/>
<path d="M8955 10610 c-3 -5 -3 -10 2 -10 4 0 1 -5 -7 -10 -8 -5 -10 -10 -5
-10 6 0 17 5 25 10 11 7 11 10 2 10 -7 0 -10 5 -7 10 3 6 4 10 1 10 -3 0 -8
-4 -11 -10z"/>
<path d="M9110 10608 c0 -6 3 -8 7 -5 3 4 13 1 22 -6 14 -11 14 -10 2 6 -15
20 -31 22 -31 5z"/>
<path d="M9293 10603 c0 -9 4 -10 14 -2 7 6 13 12 13 14 0 1 -6 2 -13 2 -8 0
-14 -6 -14 -14z"/>
<path d="M9330 10612 c0 -4 11 -8 25 -8 28 0 24 8 -5 13 -11 2 -20 -1 -20 -5z"/>
<path d="M9600 10610 c-12 -7 -10 -9 7 -7 12 0 19 5 17 9 -6 10 -6 10 -24 -2z"/>
<path d="M8866 10589 c-10 -10 -23 -16 -27 -13 -14 8 -10 -6 6 -22 8 -8 12
-22 9 -32 -5 -14 -4 -14 4 -3 7 9 7 21 2 32 -7 13 -4 21 13 32 12 8 20 17 17
20 -3 2 -14 -4 -24 -14z"/>
<path d="M8770 10590 c-9 -6 -10 -10 -3 -10 6 0 15 5 18 10 8 12 4 12 -15 0z"/>
<path d="M8804 10584 c-18 -14 -18 -15 4 -4 12 6 22 13 22 15 0 8 -5 6 -26
-11z"/>
<path d="M9836 10592 c-3 -5 1 -9 9 -9 8 0 12 4 9 9 -3 4 -7 8 -9 8 -2 0 -6
-4 -9 -8z"/>
<path d="M9970 10590 c0 -5 5 -10 11 -10 5 0 7 5 4 10 -3 6 -8 10 -11 10 -2 0
-4 -4 -4 -10z"/>
<path d="M10374 10592 c4 -3 14 -7 22 -8 9 -1 13 0 10 4 -4 3 -14 7 -22 8 -9
1 -13 0 -10 -4z"/>
<path d="M8919 10588 c-5 -18 -6 -38 -1 -34 7 8 12 36 6 36 -2 0 -4 -1 -5 -2z"/>
<path d="M9315 10580 c-4 -6 -11 -7 -17 -4 -7 4 -8 2 -4 -5 6 -9 11 -9 22 0
14 11 18 19 10 19 -3 0 -8 -5 -11 -10z"/>
<path d="M9413 10575 c0 -8 4 -12 9 -9 5 3 6 10 3 15 -9 13 -12 11 -12 -6z"/>
<path d="M8970 10576 c0 -2 7 -7 16 -10 8 -3 12 -2 9 4 -6 10 -25 14 -25 6z"/>
<path d="M9074 10565 c1 -8 6 -18 11 -22 4 -5 5 -2 0 6 -6 11 -4 13 8 8 23 -9
21 0 -2 13 -15 7 -19 7 -17 -5z"/>
<path d="M9160 10559 c13 -23 22 -25 13 -2 -5 12 -3 14 8 8 8 -5 11 -4 6 0 -4
5 -14 10 -22 11 -12 2 -12 -2 -5 -17z"/>
<path d="M9336 10563 c-6 -14 -5 -15 5 -6 7 7 10 15 7 18 -3 3 -9 -2 -12 -12z"/>
<path d="M9576 10571 c8 -8 43 -8 38 0 -2 4 -13 7 -24 6 -10 -1 -17 -3 -14 -6z"/>
<path d="M8877 10559 c7 -7 15 -10 18 -7 3 3 -2 9 -12 12 -14 6 -15 5 -6 -5z"/>
<path d="M9200 10550 c-9 -6 -10 -10 -3 -10 6 0 15 5 18 10 8 12 4 12 -15 0z"/>
<path d="M10014 10552 c4 -3 14 -7 22 -8 9 -1 13 0 10 4 -4 3 -14 7 -22 8 -9
1 -13 0 -10 -4z"/>
<path d="M10086 10548 c3 -5 10 -6 15 -3 13 9 11 12 -6 12 -8 0 -12 -4 -9 -9z"/>
<path d="M10136 10548 c3 -5 10 -6 15 -3 13 9 11 12 -6 12 -8 0 -12 -4 -9 -9z"/>
<path d="M10310 10555 c0 -7 30 -13 34 -7 3 4 -4 9 -15 9 -10 1 -19 0 -19 -2z"/>
<path d="M9002 10530 c-7 -11 -8 -20 -3 -20 9 0 24 30 18 36 -1 2 -8 -6 -15
-16z"/>
<path d="M9289 10533 c-13 -16 -12 -17 4 -4 16 13 21 21 13 21 -2 0 -10 -8
-17 -17z"/>
<path d="M9576 10537 c3 -10 9 -15 12 -12 3 3 0 11 -7 18 -10 9 -11 8 -5 -6z"/>
<path d="M8904 10528 c10 -6 22 -6 26 -2 5 5 -3 10 -18 11 -22 1 -24 0 -8 -9z"/>
<path d="M8958 10533 c7 -3 16 -2 19 1 4 3 -2 6 -13 5 -11 0 -14 -3 -6 -6z"/>
<path d="M9071 10523 c7 -12 15 -20 18 -17 3 2 -3 12 -13 22 -17 16 -18 16 -5
-5z"/>
<path d="M9110 10528 c0 -6 3 -8 7 -5 3 4 12 -1 20 -11 13 -15 13 -15 3 6 -11
23 -30 30 -30 10z"/>
<path d="M9233 10525 c0 -8 6 -16 13 -19 7 -3 10 2 7 15 -6 22 -20 26 -20 4z"/>
<path d="M9335 10529 c-3 -4 2 -6 10 -5 21 3 28 13 10 13 -9 0 -18 -4 -20 -8z"/>
<path d="M10070 10531 c0 -6 4 -13 10 -16 6 -3 7 1 4 9 -7 18 -14 21 -14 7z"/>
<path d="M10390 10536 c0 -2 7 -7 16 -10 8 -3 12 -2 9 4 -6 10 -25 14 -25 6z"/>
<path d="M9549 10513 c-13 -16 -12 -17 4 -4 16 13 21 21 13 21 -2 0 -10 -8
-17 -17z"/>
<path d="M9757 10523 c-10 -9 -9 -23 1 -23 5 0 9 7 9 15 0 17 -1 18 -10 8z"/>
<path d="M9040 10505 c-9 -10 -9 -15 -1 -15 6 0 11 5 11 11 0 5 5 7 12 3 7 -4
8 -3 4 4 -9 15 -11 15 -26 -3z"/>
<path d="M9187 10511 c6 -7 10 -19 9 -25 -2 -6 -1 -8 1 -4 2 4 11 4 19 1 8 -3
14 1 14 8 0 7 -3 9 -7 6 -3 -4 -16 1 -27 10 -12 10 -16 11 -9 4z"/>
<path d="M9386 10508 c3 -4 9 -8 15 -8 5 0 9 4 9 8 0 5 -7 9 -15 9 -8 0 -12
-4 -9 -9z"/>
<path d="M9930 10510 c0 -5 5 -10 11 -10 5 0 7 5 4 10 -3 6 -8 10 -11 10 -2 0
-4 -4 -4 -10z"/>
<path d="M9104 10499 c1 -7 10 -13 19 -15 9 -1 15 2 11 7 -3 5 -9 7 -14 4 -4
-3 -11 0 -13 5 -3 6 -4 5 -3 -1z"/>
<path d="M9359 10508 c-5 -18 -6 -38 -1 -34 7 8 12 36 6 36 -2 0 -4 -1 -5 -2z"/>
<path d="M10475 10499 c-4 -6 -5 -12 -2 -15 2 -3 7 2 10 11 7 17 1 20 -8 4z"/>
<path d="M8975 10490 c3 -5 8 -10 11 -10 2 0 4 5 4 10 0 6 -5 10 -11 10 -5 0
-7 -4 -4 -10z"/>
<path d="M9480 10496 c0 -2 8 -10 18 -17 15 -13 16 -12 3 4 -13 16 -21 21 -21
13z"/>
<path d="M10750 10489 c0 -5 5 -7 10 -4 6 3 10 8 10 11 0 2 -4 4 -10 4 -5 0
-10 -5 -10 -11z"/>
<path d="M9706 10472 c-2 -4 4 -8 14 -8 10 0 16 4 14 8 -3 4 -9 8 -14 8 -5 0
-11 -4 -14 -8z"/>
<path d="M9810 10470 c0 -5 5 -10 11 -10 5 0 7 5 4 10 -3 6 -8 10 -11 10 -2 0
-4 -4 -4 -10z"/>
<path d="M9855 10470 c3 -5 8 -10 11 -10 2 0 4 5 4 10 0 6 -5 10 -11 10 -5 0
-7 -4 -4 -10z"/>
<path d="M9895 10470 c3 -5 8 -10 11 -10 2 0 4 5 4 10 0 6 -5 10 -11 10 -5 0
-7 -4 -4 -10z"/>
<path d="M10170 10469 c0 -5 5 -7 10 -4 6 3 10 8 10 11 0 2 -4 4 -10 4 -5 0
-10 -5 -10 -11z"/>
<path d="M10205 10470 c-3 -6 1 -7 9 -4 18 7 21 14 7 14 -6 0 -13 -4 -16 -10z"/>
<path d="M10673 10465 c0 -8 4 -12 9 -9 5 3 6 10 3 15 -9 13 -12 11 -12 -6z"/>
<path d="M9249 10453 c-13 -16 -12 -17 4 -4 16 13 21 21 13 21 -2 0 -10 -8
-17 -17z"/>
<path d="M9156 10451 c9 -9 34 -9 34 -1 0 5 -9 8 -20 7 -10 -1 -17 -3 -14 -6z"/>
<path d="M9400 10456 c0 -2 8 -10 18 -17 15 -13 16 -12 3 4 -13 16 -21 21 -21
13z"/>
<path d="M9453 10443 c0 -10 4 -10 16 -1 9 7 18 13 20 15 2 1 -5 1 -16 0 -11
0 -20 -7 -20 -14z"/>
<path d="M10013 10441 c0 -11 5 -18 9 -15 4 3 5 11 1 19 -7 21 -12 19 -10 -4z"/>
<path d="M9394 10423 c21 -25 36 -30 36 -11 0 6 -3 8 -7 5 -3 -4 -16 1 -27 10
-21 18 -21 18 -2 -4z"/>
<path d="M9510 10425 c5 -7 7 -15 3 -18 -3 -4 -1 -7 5 -7 6 0 10 8 9 18 0 10
-7 19 -14 19 -9 0 -10 -4 -3 -12z"/>
<path d="M9890 10430 c0 -5 5 -10 11 -10 5 0 7 5 4 10 -3 6 -8 10 -11 10 -2 0
-4 -4 -4 -10z"/>
<path d="M10055 10430 c3 -5 8 -10 11 -10 2 0 4 5 4 10 0 6 -5 10 -11 10 -5 0
-7 -4 -4 -10z"/>
<path d="M10179 10438 c-5 -15 -4 -50 1 -53 3 -2 6 9 6 26 0 24 -3 37 -7 27z"/>
<path d="M9553 10403 c0 -11 7 -20 14 -20 10 0 10 4 1 16 -7 9 -13 18 -15 20
-1 2 -1 -5 0 -16z"/>
<path d="M9594 10408 c-4 -7 -4 -10 1 -6 4 4 15 2 24 -5 14 -11 14 -10 2 6
-16 20 -18 21 -27 5z"/>
<path d="M9455 10390 c3 -5 8 -10 11 -10 2 0 4 5 4 10 0 6 -5 10 -11 10 -5 0
-7 -4 -4 -10z"/>
<path d="M9656 10377 c3 -10 9 -15 12 -12 3 3 0 11 -7 18 -10 9 -11 8 -5 -6z"/>
<path d="M9856 10372 c-3 -5 1 -9 9 -9 8 0 12 4 9 9 -3 4 -7 8 -9 8 -2 0 -6
-4 -9 -8z"/>
<path d="M11510 8896 c0 -2 7 -7 16 -10 8 -3 12 -2 9 4 -6 10 -25 14 -25 6z"/>
<path d="M11616 8888 c3 -5 10 -6 15 -3 13 9 11 12 -6 12 -8 0 -12 -4 -9 -9z"/>
<path d="M11410 8729 c0 -5 5 -7 10 -4 6 3 10 8 10 11 0 2 -4 4 -10 4 -5 0
-10 -5 -10 -11z"/>
<path d="M11027 8489 c7 -7 15 -10 18 -7 3 3 -2 9 -12 12 -14 6 -15 5 -6 -5z"/>
<path d="M10594 8456 c1 -8 5 -18 8 -22 4 -3 5 1 4 10 -1 8 -5 18 -8 22 -4 3
-5 -1 -4 -10z"/>
<path d="M10640 8450 c-12 -7 -10 -9 7 -7 12 0 19 5 17 9 -6 10 -6 10 -24 -2z"/>
<path d="M10476 8337 c3 -10 9 -15 12 -12 3 3 0 11 -7 18 -10 9 -11 8 -5 -6z"/>
<path d="M10666 8288 c3 -5 10 -6 15 -3 13 9 11 12 -6 12 -8 0 -12 -4 -9 -9z"/>
<path d="M10510 8186 c0 -2 8 -10 18 -17 15 -13 16 -12 3 4 -13 16 -21 21 -21
13z"/>
<path d="M10775 8181 c-3 -5 -2 -12 3 -15 5 -3 9 1 9 9 0 17 -3 19 -12 6z"/>
<path d="M10350 8106 c0 -2 8 -10 18 -17 15 -13 16 -12 3 4 -13 16 -21 21 -21
13z"/>
<path d="M10640 7930 c-9 -6 -10 -10 -3 -10 6 0 15 5 18 10 8 12 4 12 -15 0z"/>
<path d="M10696 7848 c3 -5 10 -6 15 -3 13 9 11 12 -6 12 -8 0 -12 -4 -9 -9z"/>
<path d="M10546 7792 c-3 -5 1 -9 9 -9 8 0 12 4 9 9 -3 4 -7 8 -9 8 -2 0 -6
-4 -9 -8z"/>
<path d="M9627 7689 c7 -7 15 -10 18 -7 3 3 -2 9 -12 12 -14 6 -15 5 -6 -5z"/>
<path d="M9775 7590 c-3 -5 -1 -10 4 -10 6 0 11 5 11 10 0 6 -2 10 -4 10 -3 0
-8 -4 -11 -10z"/>
<path d="M9816 7551 c-3 -5 2 -15 12 -22 15 -12 16 -12 5 2 -7 9 -10 19 -6 22
3 4 4 7 0 7 -3 0 -8 -4 -11 -9z"/>
<path d="M9455 7530 c3 -5 8 -10 11 -10 2 0 4 5 4 10 0 6 -5 10 -11 10 -5 0
-7 -4 -4 -10z"/>
<path d="M9349 7453 c-13 -16 -12 -17 4 -4 9 7 17 15 17 17 0 8 -8 3 -21 -13z"/>
<path d="M9790 7416 c0 -2 7 -7 16 -10 8 -3 12 -2 9 4 -6 10 -25 14 -25 6z"/>
<path d="M9316 7368 c3 -5 10 -6 15 -3 13 9 11 12 -6 12 -8 0 -12 -4 -9 -9z"/>
<path d="M9749 7253 c-13 -16 -12 -17 4 -4 16 13 21 21 13 21 -2 0 -10 -8 -17
-17z"/>
<path d="M10380 6656 c0 -2 8 -10 18 -17 15 -13 16 -12 3 4 -13 16 -21 21 -21
13z"/>
<path d="M8950 6630 c0 -5 5 -10 11 -10 5 0 7 5 4 10 -3 6 -8 10 -11 10 -2 0
-4 -4 -4 -10z"/>
</g>
</svg>
